<svg xmlns="http://www.w3.org/2000/svg" xmlns:xlink="http://www.w3.org/1999/xlink" version="1.1" id="Слой_1" x="0px" y="0px" style="enable-background:new 0 0 800 600;" xml:space="preserve" viewBox="255.36 158.4 296.34 195.7">
<style type="text/css">
	.st0{fill:url(#SVGID_1_);}
	.st1{fill:#1B0F21;}
</style>
<g>
	<linearGradient id="SVGID_1_" gradientUnits="userSpaceOnUse" x1="315.556" y1="366.7592" x2="547.9802" y2="171.7322">
		<stop offset="1.240079e-03" style="stop-color:#E94855"/>
		<stop offset="0.3181" style="stop-color:#EE6F48"/>
		<stop offset="0.7764" style="stop-color:#F59A1D"/>
		<stop offset="1" style="stop-color:#F8AA00"/>
	</linearGradient>
	<path class="st0" d="M376.7,288.5l-11.9,8.5c-0.3,0.2-0.4,0.6-0.2,0.9l7.8,11.7c0.3,0.4,0,1-0.5,1H364c-0.2,0-0.4-0.1-0.5-0.3   l-5.3-8.5c-0.2-0.3-0.6-0.4-0.9-0.2l-3.2,1.9c-0.1,0.1-0.2,0.2-0.3,0.4l-1.5,6.2c-0.1,0.3-0.3,0.5-0.6,0.5h-7.1   c-0.4,0-0.7-0.4-0.6-0.8l5.5-21.9c0.1-0.3,0.3-0.5,0.6-0.5h7c0.4,0,0.7,0.4,0.6,0.8l-1.7,7c-0.1,0.6,0.5,1,1,0.7   c3.4-2.5,6.7-5.1,11-8.3c0.1-0.1,0.2-0.1,0.4-0.1h8C376.9,287.4,377.2,288.2,376.7,288.5z M391.1,287.4H384c-0.3,0-0.6,0.2-0.6,0.5   l-5.5,21.9c-0.1,0.4,0.2,0.8,0.6,0.8h7.1c0.3,0,0.6-0.2,0.6-0.5l5.5-21.9C391.9,287.7,391.6,287.4,391.1,287.4z M305.9,287.4h-11   c-0.2,0-0.4,0.1-0.6,0.3c-3,5.1-6.4,11.1-8,14.4h-0.1c0.1-2.9-0.2-9.1-0.5-14.1c0-0.3-0.3-0.6-0.6-0.6h-11.1   c-0.3,0-0.6,0.2-0.6,0.5l-5.5,21.9c-0.1,0.4,0.2,0.8,0.6,0.8h6.3c0.3,0,0.5-0.2,0.6-0.5l1.8-7.1c1-4,1.8-8.5,2.3-11.2h0.1   c0.1,4.6,0.3,11,0.5,18.1c0,0.3,0.3,0.6,0.6,0.6h6c0.2,0,0.5-0.1,0.6-0.3c4.5-8.1,7.8-13.9,10.1-18.3h0.1   c-0.9,2.7-2.2,7.2-3.1,10.9l-1.7,7c-0.1,0.4,0.2,0.8,0.6,0.8h7c0.3,0,0.6-0.2,0.6-0.5l5.5-21.9   C306.6,287.7,306.3,287.4,305.9,287.4z M333.5,287.9l4.5,21.9c0.1,0.4-0.2,0.8-0.6,0.8h-7.2c-0.3,0-0.6-0.2-0.6-0.5l-0.6-3.4   c-0.1-0.3-0.3-0.5-0.6-0.5h-9.5c-0.2,0-0.4,0.1-0.5,0.3l-2.6,3.9c-0.1,0.2-0.3,0.3-0.5,0.3h-7.3c-0.5,0-0.8-0.6-0.5-1l14.8-21.9   c0.1-0.2,0.3-0.3,0.5-0.3h10.2C333.2,287.4,333.5,287.6,333.5,287.9z M327.9,300.2c-0.6-3.3-1-6.3-1.1-8h-0.1   c-0.9,1.8-2.5,4.6-4.5,7.8c-0.3,0.4,0,1,0.5,1h4.5C327.7,300.9,328,300.6,327.9,300.2z M522.9,287.4h-8c-0.1,0-0.3,0-0.4,0.1   c-4.3,3.2-7.7,5.8-11,8.3c-0.5,0.4-1.2-0.1-1-0.7l1.7-7c0.1-0.4-0.2-0.8-0.6-0.8h-7c-0.3,0-0.6,0.2-0.6,0.5l-5.5,21.9   c-0.1,0.4,0.2,0.8,0.6,0.8h7.1c0.3,0,0.6-0.2,0.6-0.5l1.5-6.2c0-0.2,0.1-0.3,0.3-0.4l3.2-1.9c0.3-0.2,0.7-0.1,0.9,0.2l5.3,8.5   c0.1,0.2,0.3,0.3,0.5,0.3h7.9c0.5,0,0.8-0.6,0.5-1l-7.8-11.7c-0.2-0.3-0.1-0.7,0.2-0.9l11.9-8.5   C523.8,288.2,523.6,287.4,522.9,287.4z M546.6,174.9l-1.7-6.8l-3.7-1.2l-17.6,8l-11.5,5.7l-12.3,5.8l-9.4,6.8l-6.6,7.7l-9.4,13.5   l-8.8,20.2l-8.9,0.4l-1,5.1l1,3.3l-13.8,8.3l-20.8,8.1L397,277.4v3l18.9,0.3c0,0,23.5,1.7,25.4,1.2s45.3,5.5,45.3,5.5l14.9-6.5   l-0.8-6.9l-4.8-5.7l-9.6-7.8l-8.5,4.1l-2.5-6.5l0.2-8.5l-3.1-9.6l-1.3-6.5l2.3-8.4l21.5-23.7l39.9-21.9l1.9,2l-4,45.2l-2.7,12   l-1.7,3.1l-4.3,1.9l-21.9-8.7L499,231l-3.1-2.4l-2.6-1.2l0.7,3.7l1.9,13.5c0,0,9.7,8.8,9.9,9.1c0.2,0.3,18.3-3.1,18.3-3.1l9.7-18.1   l1.5,3.8l5-4.5l-1.5-4.1l5.1-19.1l2.7-9.9l2.9-10.8v-7.5L546.6,174.9z M422.9,287.4h-21.6c-0.3,0-0.6,0.2-0.6,0.5l-5.5,21.9   c-0.1,0.4,0.2,0.8,0.6,0.8h22c0.3,0,0.5-0.2,0.6-0.4l1.7-3.9c0.2-0.4-0.1-0.9-0.6-0.9h-14.2c-0.4,0-0.7-0.4-0.6-0.8l0.7-2.8   c0.1-0.3,0.3-0.5,0.6-0.5H419c0.3,0,0.5-0.2,0.6-0.5l1-3.9c0.1-0.4-0.2-0.8-0.6-0.8h-12.3c-0.4,0-0.7-0.4-0.6-0.8l0.5-2.2   c0.1-0.3,0.3-0.5,0.6-0.5h13.6c0.3,0,0.5-0.2,0.6-0.5l1-3.9C423.6,287.8,423.3,287.4,422.9,287.4z M480.2,287.9l4.5,21.9   c0.1,0.4-0.2,0.8-0.6,0.8h-7.2c-0.3,0-0.6-0.2-0.6-0.5l-0.6-3.4c-0.1-0.3-0.3-0.5-0.6-0.5h-9.5c-0.2,0-0.4,0.1-0.5,0.3l-2.6,3.9   c-0.1,0.2-0.3,0.3-0.5,0.3h-7.3c-0.5,0-0.8-0.6-0.5-1l14.8-21.9c0.1-0.2,0.3-0.3,0.5-0.3h10.2C479.8,287.4,480.1,287.6,480.2,287.9   z M474.5,300.2c-0.6-3.3-1-6.3-1.1-8h-0.1c-0.9,1.8-2.5,4.6-4.5,7.8c-0.3,0.4,0,1,0.5,1h4.5C474.3,300.9,474.6,300.6,474.5,300.2z    M448.9,305.3h-12.4c-0.4,0-0.7-0.4-0.6-0.8l4.1-16.4c0.1-0.4-0.2-0.8-0.6-0.8h-7.1c-0.3,0-0.6,0.2-0.6,0.5l-5.5,21.9   c-0.1,0.4,0.2,0.8,0.6,0.8h20.4c0.3,0,0.5-0.2,0.6-0.4l1.7-3.9C449.7,305.8,449.4,305.3,448.9,305.3z"/>
	<g>
		<path class="st1" d="M291.8,326.1h-8.1c-0.2,0-0.3,0.1-0.4,0.2c-4.3,3.8-7.6,6.8-10.9,9.7c-0.5,0.4-1.2,0-1.1-0.6l1.8-8.4    c0.1-0.4-0.2-0.8-0.7-0.8h-7c-0.3,0-0.6,0.2-0.7,0.5l-5.5,26c-0.1,0.4,0.2,0.8,0.7,0.8h7c0.3,0,0.6-0.2,0.7-0.5l1.6-7.4    c0-0.2,0.1-0.3,0.3-0.4l3.1-2.2c0.3-0.2,0.8-0.1,1,0.2l5.3,10c0.1,0.2,0.3,0.4,0.6,0.4h7.9c0.5,0,0.8-0.5,0.6-1l-8-14.1    c-0.2-0.3-0.1-0.6,0.2-0.8l12.2-10.2C292.7,326.9,292.4,326.1,291.8,326.1z"/>
		<path class="st1" d="M520.6,326.1h-10.1c-0.2,0-0.5,0.1-0.6,0.3l-14.9,26c-0.3,0.4,0.1,1,0.6,1h7.3c0.2,0,0.5-0.1,0.6-0.3l2.6-4.6    c0.1-0.2,0.3-0.3,0.6-0.3h9.3c0.3,0,0.6,0.2,0.7,0.6l0.6,4.1c0,0.3,0.3,0.6,0.7,0.6h7.1c0.4,0,0.7-0.4,0.7-0.8l-4.5-26    C521.2,326.3,520.9,326.1,520.6,326.1z M515,342.1l-4.6,0c-0.5,0-0.8-0.5-0.6-1c2-3.9,3.6-7.2,4.6-9.4h0.1    c0.1,2.1,0.6,5.6,1.1,9.6C515.8,341.7,515.5,342.1,515,342.1z"/>
		<path class="st1" d="M498.1,326.1h-6.9c-0.3,0-0.5,0.2-0.6,0.4c-2.3,5.4-5.7,13.3-7.6,19H483c0.1-5.1-0.3-13-0.4-18.8    c0-0.4-0.3-0.6-0.7-0.6h-6.5c-0.3,0-0.5,0.1-0.6,0.4c-2.8,6-6.3,13.8-8.4,19.2h-0.1c0.5-5,0.3-13,0.4-19c0-0.4-0.3-0.7-0.7-0.7h-7    c-0.4,0-0.7,0.3-0.7,0.7l1.3,26c0,0.4,0.3,0.6,0.7,0.6l7.8,0c0.3,0,0.5-0.1,0.6-0.4c2.7-5.8,6.1-13.4,7.7-17.7h0.1    c-0.1,4.1,0.1,11.1,0.4,17.4c0,0.4,0.3,0.6,0.7,0.6h7.9c0.3,0,0.5-0.1,0.6-0.4l12.7-26C499,326.6,498.6,326.1,498.1,326.1z"/>
		<path class="st1" d="M326.7,292.1c-0.9,1.8-2.5,4.6-4.5,7.8c-0.3,0.4,0,1,0.5,1h4.5c0.4,0,0.7-0.4,0.6-0.8c-0.6-3.3-1-6.3-1.1-8    H326.7z"/>
		<path class="st1" d="M356.8,326.1h-7c-0.3,0-0.6,0.2-0.7,0.5l-3.3,15.5c-1,4.8-2.6,5.9-5.6,5.9c-2.6,0-4.8-1.2-3.8-5.9l3.3-15.2    c0.1-0.4-0.2-0.8-0.7-0.8h-7c-0.3,0-0.6,0.2-0.7,0.5l-3.2,15.1c-2,9.5,3.6,12.4,11.2,12.4c9.6,0,13.1-3.3,14.9-11.7l3.3-15.5    C357.6,326.5,357.2,326.1,356.8,326.1z"/>
		<path class="st1" d="M454.9,326.1h-7.2c-0.2,0-0.4,0.1-0.5,0.3c-2.5,3.4-5.7,7.5-7.6,10.2c-0.3,0.5-1,0.3-1.2-0.2    c-0.7-2.7-1.9-6.6-3-9.8c-0.1-0.3-0.3-0.5-0.6-0.5h-7.6c-0.5,0-0.8,0.5-0.6,0.9l6.5,15.7c0.2,0.4,0.3,0.6,0.2,1.1l-1.9,8.8    c-0.1,0.4,0.2,0.8,0.7,0.8h7.1c0.3,0,0.6-0.2,0.7-0.5l1.7-8.1c0.1-0.6,0.2-0.9,0.5-1.1l13.4-16.5    C455.8,326.7,455.5,326.1,454.9,326.1z"/>
		<path class="st1" d="M375.3,325.5c-7.6,0-12.4,3.6-12.4,9.1c0,3.8,2.4,6,9.7,7.9c4.2,1.1,5,1.9,5,3.4c0,1.9-1.8,2.6-4.3,2.6    c-3,0-4.6-1.2-5.1-3c-0.1-0.3-0.3-0.5-0.6-0.5l-6.9,0c-0.4,0-0.7,0.4-0.7,0.8c0.8,5.4,5.2,8.3,12.9,8.3c8.9,0,13.7-3.8,13.7-9.2    c0-3.9-2-6.5-9.8-8.5c-3.7-0.9-5-1.4-5-2.9c0-1.4,1.3-2.4,3.4-2.4c3,0,4.1,1.2,4.4,2.4c0.1,0.3,0.3,0.5,0.6,0.5h6.7    c0.4,0,0.7-0.4,0.7-0.8C387.2,329.2,383.9,325.5,375.3,325.5z"/>
		<path class="st1" d="M420.6,326.1h-22.7c-0.5,0-0.8,0.3-0.9,0.8l-0.9,4.2c-0.1,0.6,0.3,1.2,0.9,1.2h10.3c0.9,0,1.3,1.1,0.6,1.7    l-15.6,14c-0.2,0.1-0.3,0.3-0.3,0.5l-0.8,3.9c-0.1,0.6,0.3,1.2,0.9,1.2h23.8c0.4,0,0.8-0.3,0.9-0.6l1.5-4.2    c0.2-0.6-0.2-1.3-0.9-1.3h-11.7c-0.9,0-1.3-1.1-0.6-1.7l15.1-13.4c0.2-0.1,0.3-0.3,0.3-0.5l1-4.5    C421.6,326.7,421.2,326.1,420.6,326.1z"/>
		<path class="st1" d="M313.3,326.1h-14c-0.3,0-0.6,0.2-0.7,0.5l-5.5,26c-0.1,0.4,0.2,0.8,0.7,0.8h6.9c0.3,0,0.6-0.2,0.7-0.5l1.9-9    c0.1-0.3,0.3-0.5,0.7-0.5h4.7c2.7,0,3,1.2,2.4,4c-0.6,2.8-0.8,4.4-0.6,5.5c0,0.3,0.3,0.6,0.7,0.6h6.9c0.4,0,0.7-0.3,0.7-0.7    c0-1.3,0.2-3,0.7-5.2c0.7-3.5-0.3-5.3-1.3-6.2c-0.4-0.3-0.2-0.9,0.2-1.1c2.7-1.2,4.6-3.3,4.6-6.8    C322.8,328.9,319.1,326.1,313.3,326.1z M309.8,337.7h-4.4c-0.4,0-0.7-0.4-0.7-0.8l0.9-4.5c0.1-0.3,0.3-0.5,0.7-0.5h4.5    c2.1,0,3.2,0.9,3.2,2.6C314,336.8,312.1,337.7,309.8,337.7z"/>
		<path class="st1" d="M488.4,241.2c0.6,0.1,0.9-0.2,1.1-0.7c0.2-0.6,0.5-1,1.2-1.2c0.5-0.2,0.5-0.5,0.1-0.8    c-0.3-0.2-0.6-0.3-0.9-0.5c-0.8-0.6-1.4-0.4-1.9,0.5c-0.2,0.4-0.5,0.7-0.8,1c-0.8,0.6-0.8,0.8,0.1,1.4    C487.6,241.1,488,241.3,488.4,241.2z"/>
		<path class="st1" d="M469.4,300.9h4.5c0.4,0,0.7-0.4,0.6-0.8c-0.6-3.3-1-6.3-1.1-8h-0.1c-0.9,1.8-2.5,4.6-4.5,7.8    C468.6,300.4,468.9,300.9,469.4,300.9z"/>
		<path class="st1" d="M551.7,189.5c-0.5-5.5-0.9-11-1.4-16.5c-0.1-0.7,0-1.3,0.2-1.9c0.2-0.5,0.2-1,0-1.4    c-1.6-3.4-3.3-6.8-4.9-10.2c-0.3-0.5-0.6-1.1-1.3-1.1c-0.7,0-0.9,0.7-1.1,1.1c-0.8,1.8-1.7,3.7-2.5,5.6c-0.2,0.5-0.5,1-1.1,1.3    c-6.5,3.3-12.9,6.6-19.4,9.9c-0.3,0.2-0.7,0.4-1,0.2c-0.7-0.5-1.3-0.1-1.9,0.2c-7.7,3.8-15.4,7.6-23.1,11.4    c-0.4,0.2-0.7,0.4-1.2,0.2c-1.7-0.7-2.5-0.5-3.7,0.8c-2.3,2.4-4.5,4.9-6.8,7.3c-3.9,4-7.4,8.4-11.7,12.1c-1,0.9-1.8,1.9-2.5,3    c-1.9,2.7-3,5.6-3.7,8.8c-0.9,4-2,8.1-3,12.1c-0.4,1.5-0.3,1.6-1.9,1.6c-3.3,0-6.6,0-9.9,0c-2.8,0-3.9,1.2-4,3.9c0,0.7,0,1.3,0,2    c0,2.4,0,4.7,0,7.1c0,0.6-0.1,1.1-0.8,1c-1.7,0-3.4,0-5.1,0c-0.5,0-0.9-0.2-1.1-0.7c-0.8-1.8-2.2-2.6-4.1-2.6    c-0.6,0-0.9-0.2-1-0.9c-0.2-1.3-0.8-2.3-2.1-2.7c-0.4-0.1-1.1-0.5-1.2,0.2c-0.1,0.6-0.5,1.4,0.3,1.8c0.5,0.3,1,0.6,0.8,1.2    c-0.1,0.6-0.8,0.3-1.2,0.3c-6.3,0-12.6,0-18.9,0c-2.1,0-2.5,0.4-2.5,2.5c0,0.6-0.2,0.8-0.8,0.8c-0.7,0-1.4,0.1-2.2,0.2    c-1.1,0.2-2.2,0.6-2.9,1.5c-0.8,1-1.9,2.1-2,3.3c-0.2,2.6-0.2,5.3,0,8c0.2,1.8,1.5,3.1,3.3,3.4c0.7,0.1,1.4,0.2,2.1,0.2    c2.4,0,4.9,0,7.3,0.1c0.3,0,0.7-0.1,1.1,0.3c-9.4,5.3-18.8,10.6-28.2,15.9l-122.8-0.2c-1.3,0-2.5,1-2.7,2.3l-5.7,32.2    c-0.3,1.8,1,3.4,2.7,3.4h273.4c1.4,0,2.6-1,2.8-2.5l4.4-31.7c0.2-1.2-0.5-2.4-1.4-2.9c0,0,0.1,0,0.1-0.1c-0.4-0.2-0.6-0.4-0.9-0.5    c-9.3-4-18.4-8.6-28-11.7c-1.5-0.5-3-1.1-4.4-1.6c-0.2-0.1-0.5-0.3-0.7,0c-0.3,0.3,0.1,0.5,0.2,0.8c0.3,0.5,0.7,1,1,1.6    c1,1.5,2,3,3.1,4.7c-0.7,0-0.9-0.3-1.2-0.5c-6.1-4.6-12.2-9.3-18.3-13.9c-0.5-0.4-0.9-0.6-1.5-0.4c-2.4,0.5-4.8,0.9-7.2,1.4    c-1.2,0.2-1.3,0.1-1.3-1.1c-0.1-5.3-0.4-10.7-1.6-15.9c-0.6-2.7-1.6-5.3-3.5-7.3c-0.5-0.5-0.6-1-0.3-1.7c1-2.4,2-4.8,3.1-7.2    c2.1-4.6,4.7-8.8,8.7-11.9c3-2.3,5.9-4.6,9-6.8c11-7.7,22.4-14.8,33.7-21.9c1.9-1.2,3.9-2.4,5.8-3.6c0.2-0.1,0.4-0.4,0.7-0.2    c0.3,0.2,0.1,0.5,0.1,0.7c0,0.2-0.1,0.5-0.1,0.7c-0.4,3.8-0.7,7.6-1,11.4c-0.4,4.9-0.9,9.9-1.3,14.8c-0.5,5.8-1,11.6-1.4,17.4    c-0.3,3.9-0.6,7.8-0.9,11.8c0,0.5-0.2,0.8-0.7,1c-1,0.3-1.8,0.9-2.7,1.4c-0.7,0.5-1.5,0.5-2.3,0.2c-5.7-2.1-11.4-4.1-17.1-6.1    c-0.7-0.2-1.3-0.6-1.8-1.2c-1.6-1.8-3.2-3.6-4.9-5.4c-0.8-0.8-1.5-1.8-2.5-2.1c-1.8-0.4-2.3-1.6-2.6-3.1c-0.2-0.9-0.7-1.9-1.6-2.4    c-0.4-0.2-0.9-0.3-1.3,0c-0.4,0.3-0.5,0.7-0.4,1.2c0.2,1,0.4,2,0.5,3c0.6,3.3,1.2,6.7,1.8,10c0.6,3.3,1.2,6.5,1.8,9.8    c0.4,2.2,0.7,4.4,1.3,6.5c1.5,4.9,5.7,7.5,10.2,8c3.8,0.4,7.5-0.3,10.8-2.2c5.2-2.9,9.8-6.5,14.7-9.8c1.7-1.2,2.5-3.4,1.8-4.9    c-0.5-1.1-0.4-2-0.2-3.1c0.3-1.7,0.9-3,2.4-4c1.7-1.1,3.2-2.5,4.8-3.8c0.9-0.7,0.9-1.2,0.3-2.1c-0.5-0.7-0.9-1.4-1.4-2.1    c-0.3-0.4-0.3-0.7-0.2-1.2c1.2-4.3,2.2-8.5,3.5-12.8c0.4-1.2,0.1-2.8,1.7-3.5c0.1,0,0.1-0.2,0.1-0.3c1.1-4.1,2.1-8.3,3.2-12.4    c0.6-2.3,1.2-4.7,1.8-7c0.1-0.4,0.2-0.8,0.7-0.8C551.7,190.7,551.7,190.2,551.7,189.5z M446.7,257.6c0.3,0.6-0.1,1.1,0.2,1.7    c0.9-1.1,1.8-2.1,2.5-3.2c1.9-2.7,4.7-4.5,7.1-6.6c0.5-0.5,0.7-0.1,0.8,0.4c0.3,1.3,0.2,2.5-1,3.4c-0.4,0.3-1.2,0.8-1,1.3    c0.2,0.5,1.1,0.2,1.6,0.1c0.8,0,1.2,0.2,1.3,1c0.1,0.6,0.2,1.2,0.5,1.7c0.4,0.8,0.1,1.2-0.6,1.5c-5.3,2.8-10.6,5.5-15.9,8.3    c-0.4,0.2-0.8,0.4-1.2,0.6c-0.3,0.1-0.7,0.7-0.9-0.1c-0.1-0.3-0.5,0-0.7,0.1c-0.7,0.4-1.4,0.9-2,1.4c-2.8,2.2-6.2,3.3-9.4,4.7    c-0.2,0.1-0.4,0.2-0.7-0.2C433.7,268.3,440.1,263,446.7,257.6z M306.5,288.2l-5.5,21.9c-0.1,0.3-0.3,0.5-0.6,0.5h-7    c-0.4,0-0.7-0.4-0.6-0.8l1.7-7c0.9-3.7,2.2-8.1,3.1-10.9h-0.1c-2.2,4.5-5.6,10.2-10.1,18.3c-0.1,0.2-0.3,0.3-0.6,0.3h-6    c-0.3,0-0.6-0.3-0.6-0.6c-0.2-7.1-0.4-13.5-0.5-18.1h-0.1c-0.5,2.7-1.3,7.2-2.3,11.2l-1.8,7.1c-0.1,0.3-0.3,0.5-0.6,0.5h-6.3    c-0.4,0-0.7-0.4-0.6-0.8l5.5-21.9c0.1-0.3,0.3-0.5,0.6-0.5h11.1c0.3,0,0.6,0.3,0.6,0.6c0.3,5,0.6,11.1,0.5,14.1h0.1    c1.5-3.2,5-9.2,8-14.4c0.1-0.2,0.3-0.3,0.6-0.3h11C306.3,287.4,306.6,287.7,306.5,288.2z M337.4,310.5h-7.2    c-0.3,0-0.6-0.2-0.6-0.5l-0.6-3.4c-0.1-0.3-0.3-0.5-0.6-0.5h-9.5c-0.2,0-0.4,0.1-0.5,0.3l-2.6,3.9c-0.1,0.2-0.3,0.3-0.5,0.3h-7.3    c-0.5,0-0.8-0.6-0.5-1l14.8-21.9c0.1-0.2,0.3-0.3,0.5-0.3h10.2c0.3,0,0.6,0.2,0.6,0.5l4.5,21.9    C338.1,310.2,337.8,310.5,337.4,310.5z M376.7,288.5l-11.9,8.5c-0.3,0.2-0.4,0.6-0.2,0.9l7.8,11.7c0.3,0.4,0,1-0.5,1H364    c-0.2,0-0.4-0.1-0.5-0.3l-5.3-8.5c-0.2-0.3-0.6-0.4-0.9-0.2l-3.2,1.9c-0.1,0.1-0.2,0.2-0.3,0.4l-1.5,6.2c-0.1,0.3-0.3,0.5-0.6,0.5    h-7.1c-0.4,0-0.7-0.4-0.6-0.8l5.5-21.9c0.1-0.3,0.3-0.5,0.6-0.5h7c0.4,0,0.7,0.4,0.6,0.8l-1.7,7c-0.1,0.6,0.5,1,1,0.7    c3.4-2.5,6.7-5.1,11-8.3c0.1-0.1,0.2-0.1,0.4-0.1h8C376.9,287.4,377.2,288.2,376.7,288.5z M391.8,288.2l-5.5,21.9    c-0.1,0.3-0.3,0.5-0.6,0.5h-7.1c-0.4,0-0.7-0.4-0.6-0.8l5.5-21.9c0.1-0.3,0.3-0.5,0.6-0.5h7.1    C391.6,287.4,391.9,287.7,391.8,288.2z M423.5,288.2l-1,3.9c-0.1,0.3-0.3,0.5-0.6,0.5h-13.6c-0.3,0-0.6,0.2-0.6,0.5l-0.5,2.2    c-0.1,0.4,0.2,0.8,0.6,0.8H420c0.4,0,0.7,0.4,0.6,0.8l-1,3.9c-0.1,0.3-0.3,0.5-0.6,0.5h-12.9c-0.3,0-0.6,0.2-0.6,0.5l-0.7,2.8    c-0.1,0.4,0.2,0.8,0.6,0.8h14.2c0.5,0,0.8,0.5,0.6,0.9l-1.7,3.9c-0.1,0.2-0.3,0.4-0.6,0.4h-22c-0.4,0-0.7-0.4-0.6-0.8l5.5-21.9    c0.1-0.3,0.3-0.5,0.6-0.5h21.6C423.3,287.4,423.6,287.8,423.5,288.2z M424.2,271.1c-2,0.5-3.9,1.1-5.9,1.6    c-4.3,1.1-8.6,2.3-12.9,3.4c-1.8,0.5-3.7,0.9-5.5,1.3c-0.2,0-0.4,0-0.7,0c0.2-0.5,0.6-0.6,0.9-0.8c7.3-4.2,14.6-8.5,21.9-12.7    c0.3-0.2,0.6-0.6,0.9-0.3c0.3,0.2,0,0.7,0,1c-0.2,0.8-0.5,1.5-0.5,2.3c-0.1,0.8-0.5,1.2-1.2,1.5c-1.6,0.6-3.1,1.4-4.6,2    c0,0.1,0,0.2,0.1,0.3c1.2-0.3,2.4-0.5,3.5-1c1.6-0.7,2.9,0,4.2,0.6c0.2,0.1,0.3,0.2,0.3,0.4C424.6,271,424.4,271.1,424.2,271.1z     M449.5,306.2l-1.7,3.9c-0.1,0.2-0.3,0.4-0.6,0.4h-20.4c-0.4,0-0.7-0.4-0.6-0.8l5.5-21.9c0.1-0.3,0.3-0.5,0.6-0.5h7.1    c0.4,0,0.7,0.4,0.6,0.8l-4.1,16.4c-0.1,0.4,0.2,0.8,0.6,0.8h12.4C449.4,305.3,449.7,305.8,449.5,306.2z M496.6,287.4h7    c0.4,0,0.7,0.4,0.6,0.8l-1.7,7c-0.1,0.6,0.5,1,1,0.7c3.4-2.5,6.7-5.1,11-8.3c0.1-0.1,0.2-0.1,0.4-0.1h8c0.6,0,0.9,0.8,0.4,1.2    l-11.9,8.5c-0.3,0.2-0.4,0.6-0.2,0.9l7.8,11.7c0.3,0.4,0,1-0.5,1h-7.9c-0.2,0-0.4-0.1-0.5-0.3l-5.3-8.5c-0.2-0.3-0.6-0.4-0.9-0.2    l-3.2,1.9c-0.1,0.1-0.2,0.2-0.3,0.4l-1.5,6.2c-0.1,0.3-0.3,0.5-0.6,0.5h-7.1c-0.4,0-0.7-0.4-0.6-0.8l5.5-21.9    C496.1,287.6,496.3,287.4,496.6,287.4z M486.2,262c0.2,0,0.5,0,0.6,0.1c0.8,0.9,1.6,1.8,2.3,2.7c0.3,0.4-0.2,0.5-0.4,0.7    c-0.5,0.4-0.4,0.7,0.1,0.8c2.1,0.1,2.9,1.7,4.1,3.1c1,1.1,1.9,2.3,3,3.6c-0.6-0.1-0.9-0.3-1.2-0.4c-3.4-2.2-6.9-4.3-10.3-6.5    c-0.5-0.3-0.9-0.6-0.9-1.2c0-0.9-0.5-1.2-1.3-1.1c-0.3,0-0.5-0.1-0.8-0.1C482.9,262.9,484.6,262.4,486.2,262z M480.2,287.9    l4.5,21.9c0.1,0.4-0.2,0.8-0.6,0.8h-7.2c-0.3,0-0.6-0.2-0.6-0.5l-0.6-3.4c-0.1-0.3-0.3-0.5-0.6-0.5h-9.5c-0.2,0-0.4,0.1-0.5,0.3    l-2.6,3.9c-0.1,0.2-0.3,0.3-0.5,0.3h-7.3c-0.5,0-0.8-0.6-0.5-1l14.8-21.9c0.1-0.2,0.3-0.3,0.5-0.3h10.2    C479.8,287.4,480.1,287.6,480.2,287.9z M479.3,280.8l-10.2,0c-0.4-0.9-0.8-1.8-1.1-2.7c-0.8-2.5-2.1-4.3-4.7-5.1    c-0.1,0-0.1-0.1-0.2-0.1c-0.6-0.4-1.1-0.3-1.6,0.2c-2.6,2.6-5.3,5.1-8,7.7l-3,0c3-3.1,6-6.2,8.9-9.3c0.5-0.5,0.9-0.6,1.6-0.4    c1.8,0.5,3.8,1.6,5.6-0.2c0.3-0.3,0.7,0,0.9,0.3c0.6,0.7,1.2,1.4,1.8,2c1,1,1.8,2.3,3,3.1C474.6,277.8,477,279.3,479.3,280.8z     M472.7,243.4c1.1,3.4,1.5,7,1.8,10.5c0,0.2,0.1,0.5-0.2,0.6c-0.3,0.1-0.4-0.1-0.6-0.2c-4.8-3.1-9.5-6.1-14.3-9.2    c-0.4-0.3-0.6-0.6-0.6-1.1c0-1.8,0-3.6,0-5.4c0-0.6,0.3-0.9,0.9-0.9c1,0,2,0,2.9,0c0,0,0,0,0,0c0.9,0,1.7,0,2.6,0    C469.2,237.9,471.5,239.7,472.7,243.4z M519.9,244.4c-6.3-1.5-12.6-3.1-18.9-4.7c-0.9-0.2-1.7-0.5-2.5-0.8    c-1.3-0.5-2.3-1.4-2.7-2.9c-0.5-1.8-0.8-3.6-1.1-5.4c-0.1-0.6,0.1-0.7,0.6-0.4c1.7,0.8,3.1,1.7,4.2,3.4c2.7,4.2,2.9,4.2,8,5.8    c5,1.7,9.9,3.5,14.9,5.2C521.4,245,520.7,244.5,519.9,244.4z M544,172.3c1.5,0,2.6,1.2,2.6,2.6c0,1.4-1.3,2.6-2.7,2.7    c-1.5,0-2.7-1.1-2.7-2.6C541.2,173.6,542.5,172.3,544,172.3z M534.4,174.2c-12.7,6.5-25.3,13-37.9,19.6c-0.2,0.1-0.5,0.2-0.7,0.3    c-0.8-0.2-0.6-1-0.9-1.5c-0.2-0.4,0-0.7,0.4-0.9c2.3-1.1,4.6-2.3,6.9-3.4c5.6-2.8,11.3-5.6,16.9-8.3c0.4-0.2,0.9-0.4,0.9-0.8    c0.1-1,0.8-1.2,1.5-1.6c5.4-2.8,10.8-5.5,16.3-8.3c0.3-0.1,0.6-0.5,0.9-0.2c0.3,0.3-0.1,0.6-0.2,0.9    C538,172.2,536.3,173.2,534.4,174.2z M538.8,232.2c-1,0.8-1.9,1.6-2.9,2.3c-0.1,0.1-0.3,0.3-0.5,0.2c-0.2-0.1-0.1-0.3-0.1-0.3    c0.5-2,0.9-3.7,1.3-5.5c0-0.2,0.2-0.5,0.4-0.5c0.3-0.1,0.4,0.2,0.5,0.4c0.5,0.8,1,1.6,1.6,2.3    C539.3,231.5,539.3,231.9,538.8,232.2z M546.6,191.8c-0.5,2.3-1.1,4.5-1.6,6.8c-0.9,3.9-1.9,7.8-2.8,11.7c0,0.2-0.1,0.4,0,0.5    c1.1,0.6,0.4,1.5,0.2,2.2c-1.1,4.1-2.2,8.3-3.3,12.4c-0.1,0.3,0,1-0.5,1c-0.5,0-0.6-0.6-0.9-1c-0.1-0.2-0.1-0.4-0.1-0.6    c0.3-1.4,0.6-2.8,1-4.2c1-4.2,2-8.3,3-12.5c0.9-3.6,1.7-7.2,2.6-10.9c0.4-1.8,0.9-3.6,1.3-5.3c0.1-0.3,0.1-0.5,0.3-0.7    c0.2-0.2,0.5-0.2,0.7-0.1C546.7,191.3,546.7,191.6,546.6,191.8z"/>
		<path class="st1" d="M486.3,250.6c0.7,1.7,1.4,3.1,3.4,3.7c1.5,0.5,1.4,0.6,2.4-0.6c0.5-0.6,1.3-1,1.1-2c-0.3-1.9-0.6-3.7-0.9-5.6    c-0.1-0.4-0.3-0.5-0.7-0.6c-1.7-0.6-3.3-0.7-4.4,1.1c-0.1,0.1-0.2,0.2-0.3,0.4C485.3,248.8,485.4,248.2,486.3,250.6z"/>
		<path class="st1" d="M493.4,259.8c0.4-0.2,0.5-0.7,0.5-1.2c0-0.5-0.1-1.1-0.4-1.2c-0.7-0.2-1,0.6-1.3,1c-0.2,0.3-0.8,0.8-0.3,1.2    C492.2,260,492.9,260.1,493.4,259.8z"/>
		<path class="st1" d="M497.1,223.2c-0.4,0.2-0.5,0.4-0.4,0.9c0.4,1.8,1.7,2.8,3.1,3.7c0.1,0.1,0.3,0.1,0.4,0    c0.4-0.1,1.8-2.2,1.8-2.8c-0.3-0.7,0.2-1.7-0.7-2.3c-1.4-1-1.3-1.1-2.8-0.2C498,222.7,497.5,223,497.1,223.2z"/>
		<path class="st1" d="M510.5,227.1c-0.3-0.1-0.6-0.3-0.9-0.5c-1.1-0.5-1.9-1.2-2-2.5c-0.1-0.5-0.4-1-0.6-1.5    c-0.2-0.6-0.5-0.7-0.9-0.1c-1.1,1.7-2.2,3.4-3.2,5c-0.2,0.3-0.3,0.6,0,0.9c0.6,0.8,1.1,1.7,2,2.2c1.4,0.8,2.5,2,3.2,3.5    c0.1,0.2,0.3,0.4,0.4,0.7c0.2,0.4,0.5,0.4,0.8,0.1c1.2-1.5,3.2-2.6,2.6-5C512.4,228.4,511.8,227.6,510.5,227.1z"/>
		<path class="st1" d="M496.7,260.6c-0.3,0.4-0.5,0.7-0.9,1c-0.6,0.4-0.5,0.7,0,1.1c0.4,0.3,0.8,0.6,1.3,0.5    c0.6,0.1,0.9-0.2,1.2-0.7c0.2-0.5,0.5-1,1.2-1.2c0.3-0.1,0.5-0.3,0.3-0.6C499.2,259.7,497.4,259.6,496.7,260.6z"/>
		<path class="st1" d="M503,213.7c-1.3,1.3-2.8,2.6-3.4,4.5c-0.2,0.6-0.1,0.9,0.6,1c0.9,0.1,1.8,0.3,2.7,0.4c0.4,0.1,0.7,0,0.8-0.3    c0.3-0.8,0.7-1.5,0.7-2.3c0-1.1-0.3-2.1-0.6-3.1C503.6,213.4,503.3,213.3,503,213.7z"/>
		<path class="st1" d="M512.5,237.3c3.2,1.2,6.4,2.1,9.8,2.7c2,0.4,2,0.4,2.4-1.6c0-0.2,0.1-0.4,0.2-0.7c0.3-1.5,0.6-3.1,0.9-4.7    c0-0.4-0.2-0.6-0.4-0.9c-1-1.4-1.9-2.9-2.9-4.3c-0.9-1.3-0.9-1.3-2.4-0.8c-0.5,0.2-1,0.4-1.6,0.5c-1.3,0.3-2.1,1.1-2.8,2.2    c-1.2,2-2.4,3.9-3.7,5.9C511.2,236.8,511.3,236.8,512.5,237.3z"/>
	</g>
</g>
</svg>