<svg xmlns="http://www.w3.org/2000/svg" xmlns:xlink="http://www.w3.org/1999/xlink" version="1.1" id="Слой_1" x="0px" y="0px" style="enable-background:new 0 0 800 600;" xml:space="preserve" viewBox="243.36 181.4 296.39 195.8">
<style type="text/css">
	.st0{fill:url(#SVGID_1_);}
</style>
<linearGradient id="SVGID_1_" gradientUnits="userSpaceOnUse" x1="243.3567" y1="279.3" x2="539.7438" y2="279.3">
	<stop offset="1.240079e-03" style="stop-color:#EB576A"/>
	<stop offset="1" style="stop-color:#F8AA00"/>
</linearGradient>
<path class="st0" d="M508.7,349.2h-10.1c-0.2,0-0.5,0.1-0.6,0.3l-14.9,26c-0.3,0.4,0.1,1,0.6,1h7.3c0.2,0,0.5-0.1,0.6-0.3l2.6-4.6  c0.1-0.2,0.3-0.3,0.6-0.3h9.3c0.3,0,0.6,0.2,0.7,0.6l0.6,4.1c0,0.3,0.3,0.6,0.7,0.6h7.1c0.4,0,0.7-0.4,0.7-0.8l-4.5-26  C509.3,349.4,509,349.2,508.7,349.2z M503.1,365.1h-4.6c-0.5,0-0.8-0.5-0.6-1c2-3.9,3.6-7.2,4.6-9.4h0.1c0.1,2.1,0.6,5.6,1.1,9.6  C503.8,364.8,503.5,365.1,503.1,365.1z M316,323.2c0.1,0.4-0.2,0.8-0.6,0.8h-4.6c-0.5,0-0.8-0.6-0.5-1c2-3.2,3.6-6,4.5-7.8h0.1  C315,316.9,315.4,319.8,316,323.2z M280.3,350.3l-12.2,10.2c-0.2,0.2-0.3,0.6-0.2,0.8l8,14.1c0.3,0.4-0.1,1-0.6,1h-7.9  c-0.2,0-0.5-0.1-0.6-0.4l-5.3-10c-0.2-0.4-0.6-0.5-1-0.2l-3.1,2.2c-0.1,0.1-0.2,0.2-0.3,0.4l-1.6,7.4c-0.1,0.3-0.3,0.5-0.7,0.5h-7  c-0.4,0-0.7-0.4-0.7-0.8l5.5-26c0.1-0.3,0.3-0.5,0.7-0.5h7c0.4,0,0.7,0.4,0.7,0.8l-1.8,8.4c-0.1,0.6,0.6,1.1,1.1,0.6  c3.3-2.9,6.6-5.9,10.9-9.7c0.1-0.1,0.3-0.2,0.4-0.2h8.1C280.5,349.2,280.8,349.9,280.3,350.3z M345.5,350l-3.3,15.5  c-1.8,8.4-5.3,11.7-14.9,11.7c-7.6,0-13.2-2.9-11.2-12.4l3.2-15.1c0.1-0.3,0.3-0.5,0.7-0.5h7c0.4,0,0.7,0.4,0.7,0.8l-3.3,15.2  c-1,4.7,1.2,5.9,3.8,5.9c3.1,0,4.7-1.1,5.6-5.9l3.3-15.5c0.1-0.3,0.3-0.5,0.7-0.5h7C345.3,349.2,345.6,349.6,345.5,350z   M486.8,350.1l-12.7,26c-0.1,0.2-0.3,0.4-0.6,0.4h-7.9c-0.4,0-0.7-0.3-0.7-0.6c-0.3-6.3-0.5-13.3-0.4-17.4h-0.1  c-1.6,4.3-5,11.9-7.7,17.7c-0.1,0.2-0.3,0.4-0.6,0.4h-7.8c-0.4,0-0.6-0.3-0.7-0.6l-1.3-26c0-0.4,0.3-0.7,0.7-0.7h7  c0.4,0,0.7,0.3,0.7,0.7c-0.1,6,0.1,13.9-0.4,19h0.1c2.1-5.4,5.6-13.2,8.4-19.2c0.1-0.2,0.3-0.4,0.6-0.4h6.5c0.4,0,0.7,0.3,0.7,0.6  c0.2,5.8,0.5,13.7,0.4,18.8h0.1c1.9-5.7,5.3-13.6,7.6-19c0.1-0.2,0.3-0.4,0.6-0.4h6.9C486.7,349.2,487,349.7,486.8,350.1z   M375.8,356.1c0.1,0.4-0.3,0.8-0.7,0.8h-6.7c-0.3,0-0.6-0.2-0.6-0.5c-0.4-1.2-1.4-2.4-4.4-2.4c-2.1,0-3.4,1-3.4,2.4  c0,1.5,1.3,2,5,2.9c7.8,1.9,9.8,4.6,9.8,8.5c0,5.4-4.8,9.2-13.7,9.2c-7.7,0-12.1-2.9-12.9-8.3c-0.1-0.4,0.2-0.8,0.7-0.8h6.9  c0.3,0,0.6,0.2,0.6,0.5c0.5,1.8,2.1,3,5.1,3c2.5,0,4.3-0.7,4.3-2.6c0-1.5-0.9-2.3-5-3.4c-7.3-1.9-9.7-4.1-9.7-7.9  c0-5.5,4.8-9.1,12.4-9.1C372,348.5,375.3,352.3,375.8,356.1z M301.4,349.2h-14c-0.3,0-0.6,0.2-0.7,0.5l-5.5,26  c-0.1,0.4,0.2,0.8,0.7,0.8h6.9c0.3,0,0.6-0.2,0.7-0.5l1.9-9c0.1-0.3,0.3-0.5,0.7-0.5h4.7c2.7,0,3,1.2,2.4,4  c-0.6,2.8-0.8,4.4-0.6,5.5c0,0.3,0.3,0.6,0.7,0.6h6.9c0.4,0,0.7-0.3,0.7-0.7c0-1.3,0.2-3,0.7-5.2c0.7-3.5-0.3-5.3-1.3-6.2  c-0.4-0.3-0.2-0.9,0.2-1.1c2.7-1.2,4.6-3.3,4.6-6.8C310.9,352,307.2,349.2,301.4,349.2z M297.9,360.8h-4.4c-0.4,0-0.7-0.4-0.7-0.8  l0.9-4.5c0.1-0.3,0.3-0.5,0.7-0.5h4.5c2.1,0,3.2,0.9,3.2,2.6C302.1,359.9,300.2,360.8,297.9,360.8z M443.5,350.3l-13.4,16.5  c-0.2,0.2-0.3,0.5-0.5,1.1l-1.7,8.1c-0.1,0.3-0.3,0.5-0.7,0.5h-7.1c-0.4,0-0.7-0.4-0.7-0.8l1.9-8.8c0.1-0.4,0-0.7-0.2-1.1l-6.5-15.7  c-0.2-0.4,0.1-0.9,0.6-0.9h7.6c0.3,0,0.5,0.2,0.6,0.5c1,3.2,2.2,7.1,3,9.8c0.1,0.5,0.9,0.7,1.2,0.2c1.9-2.7,5-6.8,7.6-10.2  c0.1-0.2,0.3-0.3,0.5-0.3h7.2C443.6,349.2,443.9,349.8,443.5,350.3z M409.6,350.3l-1,4.5c0,0.2-0.1,0.4-0.3,0.5l-15.1,13.4  c-0.7,0.6-0.2,1.7,0.6,1.7h11.7c0.7,0,1.1,0.7,0.9,1.3l-1.5,4.2c-0.1,0.4-0.5,0.6-0.9,0.6h-23.8c-0.6,0-1.1-0.6-0.9-1.2l0.8-3.9  c0-0.2,0.1-0.4,0.3-0.5l15.6-14c0.7-0.6,0.2-1.7-0.6-1.7h-10.3c-0.6,0-1.1-0.6-0.9-1.2l0.9-4.2c0.1-0.4,0.5-0.8,0.9-0.8h22.7  C409.3,349.2,409.7,349.7,409.6,350.3z M491.8,236.9c0.3,1,0.6,2,0.6,3.1c0,0.8-0.4,1.6-0.7,2.3c-0.1,0.3-0.5,0.4-0.8,0.3  c-0.9-0.1-1.8-0.3-2.7-0.4c-0.7-0.1-0.8-0.4-0.6-1c0.6-1.9,2.1-3.1,3.4-4.5C491.4,236.4,491.7,236.5,491.8,236.9z M480,282.8  c-0.5-0.4,0-0.9,0.3-1.2c0.3-0.4,0.6-1.2,1.3-1c0.4,0.1,0.4,0.8,0.4,1.2c0,0.5-0.1,1-0.5,1.2C481,283.1,480.3,283,480,282.8z   M475.4,264c-0.9-0.6-0.9-0.7-0.1-1.4c0.3-0.3,0.6-0.6,0.8-1c0.5-0.8,1.1-1.1,1.9-0.5c0.3,0.2,0.6,0.3,0.9,0.5  c0.5,0.3,0.4,0.6-0.1,0.8c-0.6,0.2-0.9,0.7-1.2,1.2c-0.2,0.5-0.6,0.8-1.1,0.7C476,264.3,475.7,264.2,475.4,264z M475,270.1  c0.1-0.1,0.3-0.2,0.3-0.4c1.1-1.8,2.7-1.7,4.4-1.1c0.3,0.1,0.6,0.2,0.7,0.6c0.3,1.9,0.6,3.7,0.9,5.6c0.1,0.9-0.6,1.4-1.1,2  c-1,1.2-1,1.1-2.4,0.6c-1.9-0.6-2.7-2-3.4-3.7C473.4,271.3,473.4,271.9,475,270.1z M500,252.9c0.6,2.4-1.4,3.5-2.6,5  c-0.3,0.3-0.6,0.3-0.8-0.1c-0.1-0.2-0.3-0.4-0.4-0.7c-0.8-1.4-1.8-2.6-3.2-3.5c-0.9-0.5-1.4-1.4-2-2.2c-0.3-0.3-0.2-0.6,0-0.9  c1.1-1.7,2.2-3.4,3.2-5c0.4-0.6,0.6-0.5,0.9,0.1c0.2,0.5,0.6,1,0.6,1.5c0.1,1.3,1,2,2,2.5c0.3,0.1,0.6,0.4,0.9,0.5  C499.9,250.7,500.5,251.5,500,252.9z M486.5,245.5c1.5-0.8,1.5-0.8,2.8,0.2c0.9,0.7,0.4,1.7,0.7,2.3c0,0.6-1.4,2.7-1.8,2.8  c-0.1,0-0.3,0-0.4,0c-1.4-0.9-2.8-1.9-3.1-3.7c-0.1-0.4,0.1-0.7,0.4-0.9C485.6,246,486.1,245.8,486.5,245.5z M500,258.8  c1.2-2,2.5-3.9,3.7-5.9c0.7-1.1,1.5-1.9,2.8-2.2c0.5-0.1,1.1-0.3,1.6-0.5c1.5-0.5,1.5-0.5,2.4,0.8c1,1.4,2,2.9,2.9,4.3  c0.2,0.3,0.5,0.6,0.4,0.9c-0.3,1.6-0.6,3.1-0.9,4.7c0,0.2-0.1,0.4-0.2,0.7c-0.4,2-0.4,2-2.4,1.6c-3.4-0.6-6.6-1.5-9.8-2.7  C499.3,259.9,499.3,259.9,500,258.8z M487.9,283.8c0.2,0.3,0,0.5-0.3,0.6c-0.6,0.2-0.9,0.7-1.2,1.2c-0.2,0.5-0.6,0.8-1.2,0.7  c-0.5,0.1-0.9-0.2-1.3-0.5c-0.5-0.4-0.6-0.7,0-1.1c0.4-0.3,0.7-0.6,0.9-1C485.5,282.7,487.3,282.7,487.9,283.8z M539.7,212.5  c-0.5-5.5-0.9-11-1.4-16.5c-0.1-0.7,0-1.3,0.2-1.9c0.2-0.5,0.2-1,0-1.4c-1.6-3.4-3.3-6.8-4.9-10.2c-0.3-0.5-0.6-1.1-1.3-1.1  s-0.9,0.7-1.1,1.1c-0.8,1.8-1.7,3.7-2.5,5.6c-0.2,0.5-0.5,1-1.1,1.3c-6.5,3.3-12.9,6.6-19.4,9.9c-0.3,0.2-0.7,0.4-1,0.2  c-0.7-0.5-1.3-0.1-1.9,0.2c-7.7,3.8-15.4,7.6-23.1,11.4c-0.4,0.2-0.7,0.4-1.2,0.2c-1.7-0.7-2.5-0.5-3.7,0.8  c-2.3,2.4-4.5,4.9-6.8,7.3c-3.9,4-7.4,8.4-11.7,12.1c-1,0.9-1.8,1.9-2.5,3c-1.9,2.7-3,5.6-3.7,8.8c-0.9,4-2,8.1-3,12.1  c-0.4,1.5-0.3,1.6-1.9,1.6c-3.3,0-6.6,0-9.9,0c-2.8,0-3.9,1.2-4,3.9c0,0.7,0,1.3,0,2c0,2.4,0,4.7,0,7.1c0,0.6-0.1,1.1-0.8,1  c-1.7,0-3.4,0-5.1,0c-0.5,0-0.9-0.2-1.1-0.7c-0.8-1.8-2.2-2.6-4.1-2.6c-0.6,0-0.9-0.2-1-0.9c-0.2-1.3-0.8-2.3-2.1-2.7  c-0.4-0.1-1.1-0.5-1.2,0.2c-0.1,0.6-0.5,1.4,0.3,1.8c0.5,0.3,1,0.6,0.8,1.2c-0.1,0.6-0.8,0.3-1.2,0.3c-6.3,0-12.6,0-18.9,0  c-2.1,0-2.5,0.4-2.5,2.5c0,0.6-0.2,0.8-0.8,0.8c-0.7,0-1.4,0.1-2.2,0.2c-1.1,0.2-2.2,0.6-2.9,1.5c-0.8,1-1.9,2.1-2,3.3  c-0.2,2.6-0.2,5.3,0,8c0.2,1.8,1.5,3.1,3.3,3.4c0.7,0.1,1.4,0.2,2.1,0.2c2.4,0,4.9,0,7.3,0.1c0.3,0,0.7-0.1,1.1,0.3  c-9.4,5.3-18.8,10.6-28.2,15.9l-122.8-0.2c-1.3,0-2.5,1-2.7,2.3l-5.7,32.2c-0.3,1.8,1,3.4,2.7,3.4h273.4c1.4,0,2.6-1,2.8-2.5  l4.4-31.7c0.2-1.2-0.5-2.4-1.4-2.9c0,0,0.1,0,0.1-0.1c-0.4-0.2-0.6-0.4-0.9-0.5c-9.3-4-18.4-8.6-28-11.7c-1.5-0.5-3-1.1-4.4-1.6  c-0.2-0.1-0.5-0.3-0.7,0c-0.3,0.3,0.1,0.5,0.2,0.8c0.3,0.5,0.7,1,1,1.6c1,1.5,2,3,3.1,4.7c-0.7,0-0.9-0.3-1.2-0.5  c-6.1-4.6-12.2-9.3-18.3-13.9c-0.5-0.4-0.9-0.6-1.5-0.4c-2.4,0.5-4.8,0.9-7.2,1.4c-1.2,0.2-1.3,0.1-1.3-1.1  c-0.1-5.3-0.4-10.7-1.6-15.9c-0.6-2.7-1.6-5.3-3.5-7.3c-0.5-0.5-0.6-1-0.3-1.7c1-2.4,2-4.8,3.1-7.2c2.1-4.6,4.7-8.8,8.7-11.9  c3-2.3,5.9-4.6,9-6.8c11-7.7,22.4-14.8,33.7-21.9c1.9-1.2,3.9-2.4,5.8-3.6c0.2-0.1,0.4-0.4,0.7-0.2c0.3,0.2,0.1,0.5,0.1,0.7  c0,0.2-0.1,0.5-0.1,0.7c-0.4,3.8-0.7,7.6-1,11.4c-0.4,4.9-0.9,9.9-1.3,14.8c-0.5,5.8-1,11.6-1.4,17.4c-0.3,3.9-0.6,7.8-0.9,11.8  c0,0.5-0.2,0.8-0.7,1c-1,0.3-1.8,0.9-2.7,1.4c-0.7,0.5-1.5,0.5-2.3,0.2c-5.7-2.1-11.4-4.1-17.1-6.1c-0.7-0.2-1.3-0.6-1.8-1.2  c-1.6-1.8-3.2-3.6-4.9-5.4c-0.8-0.8-1.5-1.8-2.5-2.1c-1.8-0.4-2.3-1.6-2.6-3.1c-0.2-0.9-0.7-1.9-1.6-2.4c-0.4-0.2-0.9-0.3-1.3,0  c-0.4,0.3-0.5,0.7-0.4,1.2c0.2,1,0.4,2,0.5,3c0.6,3.3,1.2,6.7,1.8,10s1.2,6.5,1.8,9.8c0.4,2.2,0.7,4.4,1.3,6.5  c1.5,4.9,5.7,7.5,10.2,8c3.8,0.4,7.5-0.3,10.8-2.2c5.2-2.9,9.8-6.5,14.7-9.8c1.7-1.2,2.5-3.4,1.8-4.9c-0.5-1.1-0.4-2-0.2-3.1  c0.3-1.7,0.9-3,2.4-4c1.7-1.1,3.2-2.5,4.8-3.8c0.9-0.7,0.9-1.2,0.3-2.1c-0.5-0.7-0.9-1.4-1.4-2.1c-0.3-0.4-0.3-0.8-0.2-1.2  c1.2-4.3,2.2-8.5,3.5-12.8c0.4-1.2,0.1-2.8,1.7-3.5c0.1,0,0.1-0.2,0.1-0.3c1.1-4.1,2.1-8.3,3.2-12.4c0.6-2.3,1.2-4.7,1.8-7  c0.1-0.4,0.2-0.8,0.7-0.8C539.8,213.8,539.8,213.3,539.7,212.5z M434.8,280.7c0.3,0.6-0.1,1.1,0.2,1.7c0.9-1.1,1.8-2.1,2.5-3.2  c1.9-2.7,4.7-4.5,7.1-6.6c0.5-0.5,0.7-0.1,0.8,0.4c0.3,1.3,0.2,2.5-1,3.4c-0.4,0.3-1.2,0.8-1,1.3s1.1,0.2,1.6,0.1  c0.8,0,1.2,0.2,1.3,1c0.1,0.6,0.2,1.2,0.5,1.7c0.4,0.8,0.1,1.2-0.6,1.5c-5.3,2.8-10.6,5.5-15.9,8.3c-0.5,0.2-0.9,0.4-1.3,0.6  c-0.3,0.1-0.7,0.7-0.9-0.1c-0.1-0.3-0.5,0-0.7,0.1c-0.7,0.4-1.4,0.9-2,1.4c-2.8,2.2-6.2,3.3-9.4,4.7c-0.2,0.1-0.4,0.2-0.7-0.2  C421.8,291.4,428.3,286.1,434.8,280.7z M294.7,311.2l-5.5,21.9c-0.1,0.3-0.3,0.5-0.6,0.5h-7c-0.4,0-0.7-0.4-0.6-0.8l1.6-7  c0.9-3.7,2.2-8.1,3.1-10.9h-0.1c-2.2,4.5-5.6,10.2-10.1,18.3c-0.1,0.2-0.3,0.3-0.6,0.3h-6c-0.3,0-0.6-0.3-0.6-0.6  c-0.2-7.1-0.4-13.5-0.5-18.1h-0.1c-0.5,2.7-1.3,7.2-2.3,11.2l-1.8,7.1c-0.1,0.3-0.3,0.5-0.6,0.5h-6.3c-0.4,0-0.7-0.4-0.6-0.8  l5.5-21.9c0.1-0.3,0.3-0.5,0.6-0.5h11.1c0.3,0,0.6,0.3,0.6,0.6c0.3,5,0.6,11.1,0.5,14.1h0.1c1.5-3.2,5-9.2,8-14.4  c0.1-0.2,0.3-0.3,0.6-0.3h11C294.5,310.4,294.8,310.8,294.7,311.2z M325.5,333.7h-7.2c-0.3,0-0.6-0.2-0.6-0.5l-0.6-3.4  c-0.1-0.3-0.3-0.5-0.6-0.5H307c-0.3-0.1-0.5,0-0.6,0.2l-2.6,3.9c-0.1,0.2-0.3,0.3-0.5,0.3H296c-0.5,0-0.8-0.6-0.5-1l14.8-21.9  c0.1-0.2,0.3-0.3,0.5-0.3H321c0.3,0,0.6,0.2,0.6,0.5l4.5,21.9C326.2,333.3,325.9,333.7,325.5,333.7z M364.8,311.7l-11.9,8.5  c-0.3,0.2-0.4,0.6-0.2,0.9l7.8,11.7c0.3,0.4,0,1-0.5,1h-7.9c-0.2,0-0.4-0.1-0.5-0.3l-5.3-8.5c-0.2-0.3-0.6-0.4-0.9-0.2l-3.2,1.9  c-0.1,0.1-0.2,0.2-0.3,0.4l-1.5,6.2c-0.1,0.3-0.3,0.5-0.6,0.5h-7.1c-0.4,0-0.7-0.4-0.6-0.8l5.5-21.9c-0.1-0.5,0.2-0.7,0.5-0.7h7  c0.4,0,0.7,0.4,0.6,0.8l-1.7,7c-0.1,0.6,0.5,1,1,0.7c3.4-2.5,6.7-5.1,11-8.3c0.1-0.1,0.2-0.1,0.4-0.1h8  C365,310.5,365.3,311.3,364.8,311.7z M379.8,311.2l-5.5,21.9c-0.1,0.3-0.3,0.5-0.6,0.5h-7.1c-0.4,0-0.7-0.4-0.6-0.8l5.5-21.9  c0.1-0.3,0.3-0.5,0.6-0.5h7.1C379.6,310.4,379.9,310.8,379.8,311.2z M411.6,311.2l-1,3.9c-0.1,0.3-0.3,0.5-0.6,0.5h-13.6  c-0.3,0-0.6,0.2-0.6,0.5l-0.5,2.2c-0.1,0.4,0.2,0.8,0.6,0.8h12.3c0.4,0,0.7,0.4,0.6,0.8l-1,3.9c-0.2,0.3-0.4,0.5-0.7,0.5h-12.9  c-0.3,0-0.6,0.2-0.6,0.5l-0.7,2.8c-0.1,0.4,0.2,0.8,0.6,0.8h14.2c0.5,0,0.8,0.5,0.6,0.9l-1.7,3.9c-0.1,0.2-0.3,0.4-0.6,0.4h-22  c-0.4,0-0.7-0.4-0.6-0.8l5.5-21.9c0.1-0.3,0.3-0.5,0.6-0.5H411C411.4,310.4,411.7,310.8,411.6,311.2z M412.3,294.2  c-2,0.5-3.9,1.1-5.9,1.6c-4.3,1.1-8.6,2.3-12.9,3.4c-1.8,0.5-3.7,0.9-5.5,1.3c-0.2,0-0.4,0-0.7,0c0.2-0.5,0.6-0.6,0.9-0.8  c7.3-4.2,14.6-8.5,21.9-12.7c0.3-0.2,0.6-0.6,0.9-0.3c0.3,0.2,0,0.7,0,1c-0.2,0.8-0.5,1.5-0.5,2.3c-0.1,0.8-0.5,1.2-1.2,1.5  c-1.6,0.6-3.1,1.4-4.6,2c0,0.1,0,0.2,0.1,0.3c1.2-0.3,2.4-0.5,3.5-1c1.6-0.7,2.9,0,4.2,0.6c0.2,0.1,0.3,0.2,0.3,0.4  C412.7,294.1,412.5,294.2,412.3,294.2z M437.6,329.3l-1.7,3.9c-0.1,0.2-0.3,0.4-0.6,0.4h-20.4c-0.4,0-0.7-0.4-0.6-0.8l5.5-21.9  c0-0.3,0.2-0.5,0.5-0.5h7.1c0.4,0,0.7,0.4,0.6,0.8l-4.1,16.4c-0.1,0.4,0.2,0.8,0.6,0.8H437C437.5,328.4,437.8,328.9,437.6,329.3z   M484.7,310.4h7c0.4,0,0.7,0.4,0.6,0.8l-1.7,7c-0.1,0.6,0.5,1,1,0.7c3.4-2.5,6.7-5.1,11-8.3c0.1-0.1,0.2-0.1,0.4-0.1h8  c0.6,0,0.9,0.8,0.4,1.2l-11.9,8.5c-0.3,0.2-0.4,0.6-0.2,0.9l7.8,11.7c0.3,0.4,0,1-0.5,1h-7.9c-0.2,0-0.4-0.1-0.5-0.3l-5.3-8.5  c-0.2-0.3-0.6-0.4-0.9-0.2l-3.2,1.9c-0.1,0.1-0.2,0.2-0.3,0.4l-1.5,6.2c-0.1,0.3-0.3,0.5-0.6,0.5h-7.1c-0.4,0-0.7-0.4-0.6-0.8  l5.5-21.9C484.2,310.6,484.4,310.4,484.7,310.4z M474.3,285.1c0.2,0,0.5,0,0.6,0.1c0.8,0.9,1.6,1.8,2.3,2.7c0.3,0.4-0.2,0.5-0.4,0.7  c-0.5,0.4-0.4,0.7,0.1,0.8c2.1,0.1,2.9,1.7,4.1,3.1c1,1.1,1.9,2.3,3,3.6c-0.6-0.1-0.9-0.3-1.2-0.4c-3.4-2.2-6.9-4.3-10.3-6.5  c-0.5-0.3-0.9-0.6-0.9-1.2c0-0.9-0.5-1.2-1.3-1.1c-0.3,0-0.5-0.1-0.8-0.1C471,285.9,472.6,285.5,474.3,285.1z M467.6,310.5  c0.3,0,0.6,0.2,0.6,0.5l4.5,21.9c0.1,0.4-0.2,0.8-0.6,0.8h-7.2c-0.3,0-0.6-0.2-0.6-0.5l-0.6-3.4c-0.1-0.3-0.3-0.5-0.6-0.5h-9.5  c-0.2-0.1-0.4,0-0.6,0.2l-2.6,3.9c-0.1,0.2-0.3,0.3-0.5,0.3h-7.3c-0.5,0-0.8-0.6-0.5-1l14.8-21.9c0.1-0.2,0.3-0.3,0.5-0.3H467.6z   M467.3,303.9h-10.2c-0.4-0.9-0.8-1.8-1.1-2.7c-0.8-2.5-2.1-4.3-4.7-5.1c-0.1,0-0.1-0.1-0.2-0.1c-0.6-0.4-1.1-0.3-1.6,0.2  c-2.6,2.6-5.3,5.1-8,7.7h-3c3-3.1,6-6.2,8.9-9.3c0.5-0.5,0.9-0.6,1.6-0.4c1.8,0.5,3.8,1.6,5.6-0.2c0.3-0.3,0.7,0,0.9,0.3  c0.6,0.7,1.2,1.4,1.8,2c1,1,1.8,2.3,3,3.1C462.7,300.8,465,302.3,467.3,303.9z M462.5,277c0,0.2,0.1,0.5-0.2,0.6  c-0.3,0.1-0.4-0.1-0.6-0.2c-4.8-3.1-9.5-6.1-14.3-9.2c-0.4-0.3-0.6-0.6-0.6-1.1c0-1.8,0-3.6,0-5.4c0-0.6,0.3-0.9,0.9-0.9  c1,0,2,0,2.9,0c0.9,0,1.7,0,2.6,0c4,0.2,6.4,2,7.5,5.7C461.8,269.9,462.2,273.5,462.5,277z M508,267.4c-6.3-1.5-12.6-3.1-18.9-4.7  c-0.9-0.2-1.7-0.5-2.5-0.8c-1.3-0.5-2.3-1.4-2.7-2.9c-0.5-1.8-0.8-3.6-1.1-5.4c-0.1-0.6,0.1-0.7,0.6-0.4c1.7,0.8,3.1,1.7,4.2,3.4  c2.7,4.2,2.9,4.2,8,5.8c5,1.7,9.9,3.5,14.9,5.2C509.5,268,508.7,267.6,508,267.4z M532.1,195.4c1.5,0,2.6,1.2,2.6,2.6  c0,1.4-1.3,2.6-2.7,2.7c-1.5,0-2.7-1.1-2.7-2.6C529.3,196.6,530.6,195.4,532.1,195.4z M484.6,216.9c-0.2,0.1-0.5,0.2-0.7,0.3  c-0.8-0.2-0.6-1-0.9-1.5c-0.2-0.4,0-0.7,0.4-0.9c2.3-1.1,4.6-2.3,6.9-3.4c5.6-2.8,11.3-5.6,16.9-8.3c0.4-0.2,0.9-0.4,0.9-0.8  c0.1-1,0.8-1.2,1.5-1.6c5.4-2.8,10.8-5.5,16.3-8.3c0.3-0.1,0.6-0.5,0.9-0.2c0.3,0.3-0.1,0.6-0.2,0.9c-0.5,2.2-2.2,3.2-4.1,4.2  C509.8,203.8,497.2,210.3,484.6,216.9z M526.9,255.3c-1,0.8-1.9,1.6-2.9,2.3c-0.1,0.1-0.3,0.3-0.5,0.2s-0.1-0.3-0.1-0.3  c0.5-2,0.9-3.7,1.3-5.5c0-0.2,0.2-0.5,0.4-0.5c0.3-0.1,0.4,0.2,0.5,0.4c0.5,0.8,1,1.6,1.6,2.3C527.4,254.6,527.4,254.9,526.9,255.3z   M534.7,214.9c-0.5,2.3-1.1,4.5-1.6,6.8c-0.9,3.9-1.9,7.8-2.8,11.7c0,0.2-0.1,0.4,0,0.5c1.1,0.6,0.4,1.5,0.2,2.2  c-1.1,4.1-2.2,8.3-3.3,12.4c-0.1,0.3,0,1-0.5,1s-0.6-0.6-0.9-1c-0.1-0.2-0.1-0.4-0.1-0.6c0.3-1.4,0.6-2.8,1-4.2c1-4.2,2-8.3,3-12.5  c0.9-3.6,1.7-7.2,2.6-10.9c0.4-1.8,0.9-3.6,1.3-5.3c0.1-0.3,0.1-0.5,0.3-0.7s0.5-0.2,0.7-0.1C534.8,214.4,534.7,214.7,534.7,214.9z   M456.9,323c2-3.2,3.6-6,4.5-7.8h0.1c0.1,1.7,0.5,4.6,1.1,8c0.1,0.4-0.2,0.8-0.6,0.8h-4.6C456.9,324,456.6,323.4,456.9,323z"/>
</svg>