<svg id="SvgjsSvg1001" width="288" height="288" xmlns="http://www.w3.org/2000/svg" version="1.1" xmlns:xlink="http://www.w3.org/1999/xlink" xmlns:svgjs="http://svgjs.com/svgjs"><defs id="SvgjsDefs1002"></defs><g id="SvgjsG1008" transform="matrix(1,0,0,1,0,0)"><svg xmlns="http://www.w3.org/2000/svg" enable-background="new 0 0 806 600" viewBox="252.75 158.4 296.05 195.7" width="288" height="288"><path fill="#fd7068" d="M288.9 326.1h-8.1c-.2 0-.3.1-.4.2-4.2 3.7-7.6 6.7-10.9 9.7-.3.2-.7.2-.9 0-.1-.2-.2-.4-.2-.6l1.8-8.4c.1-.4-.1-.7-.5-.8 0 0-.1 0-.1 0h-7c-.3 0-.6.2-.6.5l-5.5 26c-.1.4.1.7.5.8.1 0 .1 0 .2 0h7c.3 0 .6-.2.6-.5l1.5-7.4c0-.2.1-.3.3-.4l3.1-2.2c.3-.2.7-.2.9.1 0 0 .1.1.1.1l5.3 10c.1.2.3.4.6.4h7.9c.4 0 .7-.3.7-.7 0-.1 0-.2-.1-.3l-8-14.1c-.1-.3-.1-.6.1-.8l12.2-10.2c.3-.2.4-.6.1-.9C289.3 326.2 289.1 326.1 288.9 326.1zM310.5 326.1h-14c-.3 0-.6.2-.6.5l-5.5 26c-.1.4.2.7.5.8 0 0 .1 0 .1 0h6.9c.3 0 .6-.2.6-.5l1.9-9c.1-.3.3-.5.6-.5h4.7c2.7 0 3 1.2 2.4 4-.5 1.8-.7 3.7-.6 5.5 0 .3.3.6.7.6h6.9c.4 0 .7-.3.7-.7 0 0 0 0 0 0 0-1.7.2-3.5.7-5.2.8-3.5-.3-5.3-1.3-6.2-.3-.3-.3-.7 0-.9.1-.1.1-.1.2-.2 2.8-1.1 4.7-3.8 4.6-6.8C319.9 328.9 316.2 326.1 310.5 326.1zM306.9 337.7h-4.5c-.4 0-.7-.3-.7-.7 0 0 0-.1 0-.1l.9-4.5c.1-.3.3-.5.6-.5h4.5c2.1 0 3.2.9 3.2 2.6C311.1 336.8 309.2 337.7 306.9 337.7L306.9 337.7zM353.9 326.1h-7c-.3 0-.6.2-.6.5l-3.3 15.5c-1 4.8-2.6 5.9-5.6 5.9-2.6 0-4.8-1.2-3.8-5.9l3.3-15.2c.1-.4-.2-.7-.5-.8 0 0-.1 0-.1 0h-7c-.3 0-.6.2-.6.5l-3.2 15.1c-2 9.5 3.6 12.4 11.2 12.4 9.6 0 13.1-3.3 14.9-11.7l3.3-15.5c.1-.4-.1-.7-.5-.8C354.1 326.1 354 326.1 353.9 326.1zM372.4 325.5c-7.6 0-12.4 3.6-12.4 9.1 0 3.8 2.4 6 9.7 7.9 4.2 1.1 5 1.9 5 3.4 0 1.9-1.9 2.6-4.3 2.6-3 0-4.6-1.2-5.1-3-.1-.3-.3-.5-.6-.5h-6.9c-.4 0-.7.3-.7.7 0 0 0 .1 0 .1.8 5.4 5.2 8.3 12.9 8.3 8.9 0 13.7-3.8 13.7-9.2 0-3.9-2-6.5-9.9-8.5-3.7-.9-5-1.4-5-2.9s1.3-2.4 3.4-2.4c3 0 4.1 1.2 4.4 2.4.1.3.3.5.6.5h6.7c.4 0 .7-.3.7-.7 0 0 0-.1 0-.1C384.3 329.2 381 325.5 372.4 325.5zM417.7 326.1H395c-.4 0-.8.3-.9.8l-.9 4.2c-.1.5.3 1.1.8 1.1 0 0 .1 0 .1 0h10.3c.6 0 1 .5.9 1.1 0 .2-.1.4-.3.6l-15.6 14c-.1.1-.3.3-.3.5l-.8 3.9c-.1.5.3 1.1.8 1.1 0 0 .1 0 .1 0H413c.4 0 .8-.3.9-.6l1.5-4.2c.2-.5-.1-1.1-.7-1.2-.1 0-.2 0-.2 0h-11.6c-.6 0-1-.5-.9-1.1 0-.2.1-.4.3-.6l15.1-13.4c.2-.1.3-.3.3-.5l1-4.5c.1-.5-.2-1.1-.8-1.2C417.8 326.1 417.7 326.1 417.7 326.1zM452 326.1h-7.2c-.2 0-.4.1-.5.3-2.5 3.4-5.7 7.5-7.6 10.2-.2.3-.6.4-.9.2-.1-.1-.2-.2-.3-.4-.7-2.7-1.9-6.6-3-9.8-.1-.3-.4-.5-.6-.5h-7.6c-.4 0-.7.3-.7.7 0 .1 0 .2 0 .2l6.5 15.7c.2.3.2.7.2 1.1l-1.9 8.8c-.1.4.2.7.5.8 0 0 .1 0 .1 0h7.1c.3 0 .6-.2.6-.5l1.7-8.1c0-.4.2-.8.5-1.1l13.4-16.5c.2-.3.2-.7-.1-.9C452.3 326.2 452.2 326.1 452 326.1zM495.2 326.1h-6.9c-.3 0-.5.2-.6.4-2.3 5.4-5.7 13.3-7.6 19h-.1c.1-5.1-.2-13-.4-18.8 0-.4-.3-.6-.7-.6h-6.5c-.3 0-.5.1-.6.4-2.8 6-6.3 13.8-8.4 19.2h0c.5-5 .3-13 .4-19 0-.4-.3-.7-.6-.7 0 0 0 0 0 0h-7c-.4 0-.7.3-.7.6 0 0 0 0 0 .1l1.3 26c0 .4.3.6.7.6h7.8c.3 0 .5-.1.6-.4 2.7-5.8 6.1-13.4 7.7-17.7h.1c-.1 4.1.1 11.1.4 17.4 0 .4.3.6.7.6h7.9c.3 0 .5-.2.6-.4l12.7-26c.1-.3 0-.7-.4-.9C495.4 326.1 495.3 326.1 495.2 326.1zM517.7 326.1h-10.1c-.2 0-.5.1-.6.3l-14.9 26c-.2.3-.1.7.3.9.1.1.2.1.3.1h7.3c.2 0 .5-.1.6-.3l2.6-4.6c.1-.2.3-.3.6-.3h9.3c.3 0 .6.2.7.6l.6 4.1c0 .3.3.6.7.6h7.2c.4 0 .7-.3.7-.7 0 0 0-.1 0-.1l-4.5-26C518.3 326.3 518 326.1 517.7 326.1zM512.1 342.1h-4.6c-.4 0-.7-.3-.7-.7 0-.1 0-.2.1-.3 2-3.9 3.6-7.2 4.6-9.4h.1c.1 2.1.6 5.6 1.1 9.6C512.9 341.7 512.6 342 512.1 342.1 512.2 342.1 512.2 342.1 512.1 342.1L512.1 342.1zM548.8 189.5c-.5-5.5-.9-11-1.4-16.6-.1-.7 0-1.3.2-1.9.2-.5.2-1 0-1.4l-4.9-10.2c-.3-.6-.6-1-1.3-1s-.8.7-1.1 1.1c-.8 1.8-1.7 3.7-2.5 5.6-.2.6-.6 1-1.1 1.3-6.5 3.3-12.9 6.6-19.4 9.9-.3.2-.7.4-1 .2-.7-.5-1.3-.1-1.9.2L491.4 188c-.4.2-.8.3-1.2.2-1.3-.7-2.9-.4-3.7.9-2.2 2.4-4.5 4.9-6.8 7.3-3.9 4.1-7.4 8.4-11.6 12.1-1 .9-1.8 1.9-2.5 3-1.8 2.7-3 5.7-3.7 8.8-.9 4-2 8.1-3 12.1-.4 1.6-.3 1.6-1.9 1.6-3.3 0-6.6 0-9.9 0-2.8 0-3.9 1.2-4 3.9 0 .6 0 1.3 0 2 0 2.4 0 4.7 0 7.1 0 .6-.1 1.1-.8 1.1-1.7 0-3.4 0-5.1-.1-.5.1-.9-.2-1.1-.7-.7-1.7-2.3-2.7-4.1-2.6-.6 0-.9-.2-1-.9-.1-1.2-.9-2.3-2.1-2.7-.4-.1-1-.5-1.2.2-.1.6-.5 1.4.3 1.8.5.3 1 .6.8 1.2s-.8.3-1.2.3c-6.3 0-12.6 0-18.9 0-2.1 0-2.5.4-2.5 2.5 0 .6-.2.8-.8.8-.7 0-1.4.1-2.2.2-1.1.1-2.1.7-2.9 1.5-.8 1-1.9 2.1-2 3.3-.2 2.7-.2 5.3 0 8 .1 1.8 1.5 3.2 3.3 3.4.7.1 1.4.2 2.1.2 2.4 0 4.9 0 7.3.1.4-.1.8 0 1.1.3l-28.2 15.9-122.8-.2c-1.4 0-2.5 1-2.7 2.3l-5.6 32.1c-.3 1.5.7 3 2.3 3.3.2 0 .3 0 .5 0h273.4c1.4 0 2.6-1.1 2.8-2.5l4.4-31.7c.2-1.2-.4-2.3-1.4-2.9l.1-.1c-.3-.2-.6-.4-.9-.5-9.3-4-18.4-8.6-28-11.7-1.5-.5-3-1-4.4-1.6-.2-.1-.5-.2-.7 0s.1.5.2.8c.3.5.7 1 1 1.6l3.1 4.7c-.4 0-.9-.2-1.2-.5-6.1-4.6-12.2-9.3-18.3-13.9-.4-.4-1-.5-1.5-.4-2.4.5-4.8 1-7.2 1.4-1.2.2-1.3.1-1.3-1.1 0-5.3-.5-10.7-1.6-15.9-.5-2.7-1.7-5.3-3.5-7.3-.5-.4-.6-1.1-.3-1.7 1-2.4 2-4.8 3.1-7.2 2.1-4.6 4.7-8.8 8.7-11.9 3-2.3 5.9-4.6 9-6.8 11-7.7 22.4-14.8 33.7-21.9l5.8-3.6c.2-.1.4-.4.7-.2s.1.5.1.7-.1.5-.1.7c-.3 3.8-.7 7.6-1 11.4-.4 4.9-.9 9.9-1.3 14.8-.5 5.8-1 11.6-1.5 17.4-.3 3.9-.6 7.8-.9 11.8 0 .5-.3.9-.7 1-1 .4-1.8.8-2.7 1.4-.7.5-1.6.6-2.3.2-5.7-2.1-11.4-4.1-17.1-6.1-.7-.2-1.3-.6-1.8-1.2-1.6-1.8-3.2-3.6-4.9-5.4-.8-.8-1.5-1.8-2.5-2.1-1.8-.4-2.3-1.6-2.6-3.1-.2-1-.7-1.9-1.6-2.4-.4-.3-.9-.3-1.3 0-.4.3-.5.8-.4 1.2.2 1 .4 2 .5 3l1.8 10c.6 3.3 1.2 6.5 1.8 9.8.3 2.2.8 4.4 1.3 6.5 1.5 4.9 5.7 7.5 10.2 8 3.7.4 7.5-.3 10.8-2.2 5.2-2.9 9.8-6.5 14.7-9.9 1.7-1.2 2.5-3.4 1.8-4.9-.4-1-.5-2.1-.2-3.1.2-1.6 1.1-3.1 2.4-4 1.7-1.1 3.2-2.5 4.8-3.8.9-.7.9-1.1.3-2.1-.5-.7-.9-1.4-1.4-2.1-.3-.3-.3-.8-.2-1.2 1.2-4.3 2.2-8.5 3.5-12.8.4-1.2.1-2.8 1.7-3.5.1 0 .1-.2.2-.4 1.1-4.1 2.1-8.3 3.2-12.4.6-2.3 1.2-4.7 1.8-7 .1-.4.2-.8.7-.8C548.8 190.7 548.8 190.2 548.8 189.5zM443.8 257.6c.3.6-.1 1.1.2 1.7.9-1.1 1.8-2.1 2.5-3.2 1.9-2.7 4.7-4.5 7.1-6.6.5-.5.7-.1.9.4.5 1.2 0 2.6-1 3.4-.4.3-1.2.8-1 1.3s1.1.2 1.6.1c.8 0 1.2.2 1.3 1 .1.6.2 1.2.5 1.7.4.8.1 1.2-.6 1.5-5.3 2.8-10.6 5.5-15.9 8.3-.4.2-.8.4-1.2.6-.3.1-.7.7-.9-.1-.1-.3-.5 0-.7.1-.7.4-1.4.9-2 1.4-2.8 2.2-6.2 3.2-9.4 4.7-.2.1-.6.1-.7-.1L443.8 257.6zM303.6 288.1l-5.5 21.9c-.1.3-.3.5-.6.5h-7c-.4 0-.6-.3-.6-.6 0-.1 0-.1 0-.2l1.7-7c.9-3.7 2.2-8.1 3.1-10.9h-.1c-2.2 4.5-5.6 10.2-10.1 18.3-.1.2-.3.3-.6.3h-6c-.3 0-.6-.3-.6-.6-.2-7.1-.4-13.5-.5-18.1h-.1c-.5 2.7-1.3 7.2-2.3 11.2l-1.8 7.1c-.1.3-.3.5-.6.5h-6.3c-.4 0-.6-.3-.6-.7 0 0 0-.1 0-.1l5.5-21.9c.1-.3.3-.5.6-.5h11.1c.3 0 .6.3.6.6.3 5 .6 11.1.5 14.1h0c1.5-3.2 5-9.2 8-14.4.1-.2.3-.3.5-.3h11C303.4 287.4 303.7 287.7 303.6 288.1 303.6 288.1 303.6 288.1 303.6 288.1zM334.5 310.5h-7.2c-.3 0-.6-.2-.6-.5l-.6-3.4c-.1-.3-.3-.5-.6-.5h-9.5c-.2 0-.4.1-.5.3l-2.6 3.9c-.1.2-.3.3-.5.3h-7.3c-.4 0-.6-.3-.6-.6 0-.1 0-.3.1-.4l14.8-21.9c.1-.2.3-.3.5-.3H330c.3 0 .6.2.6.5l4.5 21.9c.1.3-.2.7-.5.8C334.6 310.5 334.5 310.6 334.5 310.5zM373.8 288.5l-11.9 8.5c-.3.2-.4.6-.2.9l7.8 11.7c.2.3.1.7-.2.9-.1.1-.2.1-.4.1h-7.9c-.2 0-.4-.1-.5-.3l-5.4-8.5c-.2-.3-.6-.4-.9-.2l-3.2 2c-.1.1-.3.2-.3.4l-1.5 6.2c-.1.3-.3.5-.6.5h-7.1c-.4 0-.6-.3-.6-.6 0-.1 0-.1 0-.2l5.5-21.9c.1-.3.3-.5.6-.5h7c.4 0 .6.3.6.6 0 .1 0 .1 0 .2l-1.7 7c-.1.3.1.7.5.8.2 0 .4 0 .5-.1 3.4-2.5 6.7-5.1 11-8.3.1-.1.2-.1.4-.1h8c.4 0 .6.3.6.6C374 288.2 373.9 288.4 373.8 288.5L373.8 288.5zM388.9 288.2l-5.5 21.9c-.1.3-.3.5-.6.5h-7.1c-.4 0-.6-.3-.6-.6 0-.1 0-.1 0-.2l5.5-21.9c.1-.3.3-.5.6-.5h7.1c.4 0 .6.3.6.6C388.9 288 388.9 288.1 388.9 288.2L388.9 288.2zM420.6 288.2l-1 3.9c-.1.3-.3.5-.6.5h-13.6c-.3 0-.6.2-.6.5l-.5 2.2c-.1.3.1.7.5.8 0 0 .1 0 .1 0h12.3c.4 0 .6.3.6.6 0 .1 0 .1 0 .2l-1 3.9c-.1.3-.3.5-.6.5h-12.9c-.3 0-.6.2-.6.5l-.7 2.8c-.1.3.1.7.5.8 0 0 .1 0 .1 0h14.2c.3 0 .6.3.6.6 0 .1 0 .2-.1.3l-1.7 3.9c-.1.2-.3.4-.6.4h-22c-.4 0-.6-.3-.6-.7 0 0 0-.1 0-.1l5.5-21.9c.1-.3.3-.5.6-.5H420c.4 0 .6.3.6.7C420.7 288.1 420.6 288.1 420.6 288.2L420.6 288.2zM421.3 271.2c-2 .5-3.9 1.1-5.9 1.6-4.3 1.1-8.6 2.3-12.9 3.4-1.8.5-3.7.9-5.5 1.3-.2 0-.4 0-.6 0 .2-.5.6-.6.9-.8 7.3-4.2 14.6-8.5 21.9-12.7.3-.2.6-.6.9-.3s0 .7 0 1c-.2.7-.4 1.5-.5 2.3-.1.7-.5 1.3-1.2 1.5-1.6.6-3.1 1.4-4.6 2l.1.3c1.2-.2 2.4-.6 3.5-1 1.6-.7 2.9 0 4.2.6.2.1.3.2.3.4S421.5 271.1 421.3 271.2L421.3 271.2zM446.6 306.3l-1.7 3.9c-.1.2-.3.4-.6.4h-20.5c-.4 0-.6-.3-.6-.6 0-.1 0-.1 0-.2l5.5-21.9c.1-.3.3-.5.6-.5h7.1c.4 0 .6.3.6.6 0 .1 0 .1 0 .2l-4.1 16.4c-.1.3.1.7.5.8.1 0 .1 0 .2 0H446c.4 0 .6.3.6.6C446.7 306.1 446.6 306.2 446.6 306.3L446.6 306.3zM493.7 287.4h7c.4 0 .6.3.6.6 0 0 0 .1 0 .1l-1.7 7c-.1.3.1.7.4.8.2.1.4 0 .6-.1 3.4-2.5 6.7-5.1 11-8.3.1-.1.2-.1.4-.1h8c.4 0 .6.3.6.6 0 .2-.1.4-.3.5l-11.9 8.4c-.3.2-.3.6-.2.9l7.8 11.7c.2.3.1.7-.2.9-.1.1-.2.1-.4.1h-7.9c-.2 0-.4-.1-.5-.3l-5.4-8.5c-.2-.3-.6-.4-.9-.2l-3.2 2c-.1.1-.3.2-.3.4l-1.5 6.2c-.1.3-.3.5-.6.5h-7.1c-.4 0-.6-.3-.6-.7 0 0 0-.1 0-.1l5.5-21.9C493.2 287.6 493.4 287.4 493.7 287.4L493.7 287.4zM483.3 262c.2-.1.4 0 .6.1.8.9 1.5 1.8 2.3 2.7.3.4-.2.5-.4.7-.5.4-.4.7.1.8 2.1.1 3 1.7 4.1 3.1 1 1.1 1.9 2.3 3 3.6-.4 0-.8-.2-1.2-.4-3.4-2.2-6.9-4.3-10.3-6.5-.5-.3-.9-.6-.9-1.2 0-.9-.5-1.2-1.3-1.1-.3 0-.5 0-.8-.1C480 262.9 481.6 262.4 483.3 262zM477.3 287.8l4.5 21.9c.1.3-.2.7-.5.8 0 0-.1 0-.1 0h-7.2c-.3 0-.6-.2-.6-.5l-.6-3.4c-.1-.3-.3-.5-.6-.5h-9.5c-.2 0-.4.1-.5.3l-2.6 3.9c-.1.2-.3.3-.5.3h-7.3c-.4 0-.6-.3-.6-.7 0-.1 0-.2.1-.3l14.8-21.9c.1-.2.3-.3.5-.3h10.2C477 287.3 477.2 287.6 477.3 287.8L477.3 287.8zM476.4 280.8h-10.2c-.4-.9-.8-1.8-1.1-2.7-.8-2.5-2.1-4.4-4.7-5.1-.1 0-.1-.1-.2-.1-.5-.4-1.2-.3-1.6.2-2.6 2.6-5.3 5.1-8 7.7h-3c3-3.1 6-6.2 9-9.3.4-.5 1-.7 1.6-.4 1.8.5 3.8 1.6 5.6-.2.3-.3.7 0 .9.3.6.7 1.2 1.4 1.8 2 .9 1.1 1.9 2.2 3 3.1C471.7 277.8 474.1 279.3 476.4 280.8L476.4 280.8zM469.8 243.4c1 3.4 1.6 7 1.8 10.5 0 .2.1.5-.2.6s-.4-.1-.6-.2c-4.7-3.1-9.5-6.1-14.3-9.2-.4-.2-.6-.6-.5-1.1 0-1.8 0-3.6 0-5.4 0-.6.3-.9.9-.9 1 0 2 0 3 0l0 0c.9 0 1.7 0 2.5 0C466.3 237.9 468.6 239.7 469.8 243.4L469.8 243.4zM517 244.4c-6.3-1.5-12.6-3.1-18.9-4.7-.9-.2-1.7-.5-2.5-.8-1.3-.5-2.3-1.5-2.7-2.9-.5-1.8-.8-3.6-1.1-5.4-.1-.6.1-.7.6-.4 1.7.7 3.1 1.8 4.1 3.4 2.7 4.2 2.9 4.2 8 5.8s9.9 3.5 14.9 5.2C518.5 245 517.8 244.5 517 244.4L517 244.4zM541.1 172.4c1.4 0 2.6 1.2 2.6 2.6 0 0 0 0 0 0-.1 1.5-1.3 2.6-2.7 2.7-1.4 0-2.6-1.1-2.6-2.5 0 0 0 0 0-.1C538.4 173.6 539.6 172.3 541.1 172.4L541.1 172.4zM531.5 174.3c-12.7 6.5-25.3 13-37.9 19.6l-.7.3c-.8-.2-.6-1-.9-1.5s0-.7.5-.9c2.3-1.1 4.6-2.3 6.9-3.4l16.9-8.3c.4-.2.9-.4.9-.8.1-1 .8-1.2 1.5-1.6l16.3-8.3c.3-.1.6-.5.9-.2s-.1.6-.2.9C535.1 172.2 533.5 173.2 531.5 174.3L531.5 174.3zM536 232.3c-1 .8-1.9 1.6-2.9 2.3-.1.1-.3.3-.5.2-.1-.1-.2-.2-.1-.3.5-2 .9-3.7 1.3-5.5 0-.2.2-.4.4-.6.3-.1.4.2.5.4.5.8 1 1.6 1.6 2.3.3.3.2.8-.1 1.1C536 232.2 536 232.2 536 232.3L536 232.3zM543.7 191.9c-.5 2.2-1.1 4.5-1.6 6.8-.9 3.9-1.9 7.8-2.8 11.7 0 .2-.1.4 0 .5 1.1.6.4 1.5.2 2.2-1.1 4.1-2.2 8.3-3.3 12.4-.1.4 0 1-.5 1s-.6-.6-.9-1c-.1-.2-.1-.4-.1-.6.3-1.4.7-2.9 1-4.2l3-12.5 2.6-10.9c.4-1.8.9-3.6 1.3-5.3.1-.2.1-.5.3-.7.2-.2.5-.2.7-.1C543.8 191.3 543.8 191.6 543.7 191.9L543.7 191.9z" class="colorf8aa00 svgShape"></path><path fill="#fd7068" d="M509.6 237.3c3.2 1.2 6.5 2.1 9.8 2.7 2 .4 2 .4 2.4-1.6 0-.2.1-.4.2-.7.3-1.5.6-3.1.9-4.7 0-.4-.2-.6-.4-.9-1-1.4-2-2.9-2.9-4.3-.9-1.3-.9-1.3-2.4-.8-.5.2-1.1.4-1.6.5-1.2.3-2.2 1.1-2.8 2.2-1.2 2-2.5 3.9-3.7 5.9C508.3 236.8 508.4 236.8 509.6 237.3zM507.6 227.1c-.3-.1-.6-.3-.9-.5-1.1-.4-1.9-1.3-2-2.5-.1-.5-.3-1.1-.6-1.5-.2-.6-.5-.7-.9-.1l-3.2 5c-.2.3-.2.6 0 .9.5.9 1.2 1.6 2 2.2 1.4.8 2.5 2 3.2 3.5.1.2.3.4.4.7.2.4.5.4.8.1 1.2-1.5 3.2-2.6 2.6-5C509.5 228.4 508.9 227.6 507.6 227.1zM483.5 250.6c.7 1.7 1.4 3.1 3.4 3.7 1.5.5 1.4.6 2.4-.6.5-.6 1.3-1 1.1-2-.3-1.9-.6-3.8-.9-5.6-.1-.4-.3-.5-.7-.6-1.7-.6-3.3-.7-4.4 1.1-.1.1-.2.2-.3.4C482.4 248.8 482.5 248.2 483.5 250.6zM494.2 223.2c-.3.1-.5.5-.4.9.4 1.8 1.7 2.8 3.1 3.7.1 0 .3 0 .4 0 .8-.8 1.5-1.7 1.9-2.8-.4-.7.2-1.7-.7-2.3-1.4-1-1.4-1.1-2.9-.2L494.2 223.2zM500.1 213.7c-1.3 1.4-2.8 2.6-3.4 4.5-.2.6-.1.9.6 1l2.7.4c.4.1.7 0 .8-.3.4-.7.6-1.5.7-2.3 0-1-.2-2.1-.6-3.1C500.7 213.4 500.4 213.3 500.1 213.7zM493.8 260.6c-.2.4-.5.7-.9 1-.6.4-.5.7 0 1.1.3.3.8.5 1.3.5.5.1 1-.2 1.2-.7.2-.6.6-1 1.2-1.2.3-.1.5-.3.3-.6-.6-.9-1.7-1.1-2.6-.5C494.1 260.3 494 260.5 493.8 260.6zM485.5 241.2c.5.1 1-.2 1.1-.7.2-.6.6-1 1.2-1.2.5-.2.5-.5.1-.8-.3-.2-.6-.3-.9-.5-.8-.6-1.4-.4-1.9.4-.2.4-.5.7-.8 1-.8.6-.8.8.1 1.4C484.7 241.1 485.1 241.3 485.5 241.2zM490.5 259.8c.4-.3.6-.7.5-1.2 0-.5-.1-1.1-.4-1.2-.7-.2-1 .6-1.3 1s-.8.8-.3 1.2C489.4 260 490 260 490.5 259.8zM466.5 300.9h4.5c.4 0 .6-.3.6-.6 0 0 0-.1 0-.1-.6-3.4-1-6.2-1.1-8h-.1c-.9 1.8-2.5 4.6-4.5 7.8-.2.3 0 .7.3.9C466.3 300.9 466.4 300.9 466.5 300.9zM323.8 292.1c-.9 1.8-2.5 4.6-4.5 7.8-.2.3-.1.7.2.9.1.1.2.1.4.1h4.5c.4 0 .6-.3.6-.6 0 0 0-.1 0-.1-.6-3.4-1-6.2-1.1-8L323.8 292.1z" class="colorf8aa00 svgShape"></path></svg></g></svg>