<svg xmlns="http://www.w3.org/2000/svg" xmlns:xlink="http://www.w3.org/1999/xlink" version="1.1" id="Слой_1" x="0px" y="0px" style="enable-background:new 0 0 806 600;" xml:space="preserve" viewBox="252.75 158.4 296.05 195.7">
<style type="text/css">
	.st0{fill:#F8AA00;}
</style>
<path class="st0" d="M288.9,326.1h-8.1c-0.2,0-0.3,0.1-0.4,0.2c-4.2,3.7-7.6,6.7-10.9,9.7c-0.3,0.2-0.7,0.2-0.9,0  c-0.1-0.2-0.2-0.4-0.2-0.6l1.8-8.4c0.1-0.4-0.1-0.7-0.5-0.8c0,0-0.1,0-0.1,0h-7c-0.3,0-0.6,0.2-0.6,0.5l-5.5,26  c-0.1,0.4,0.1,0.7,0.5,0.8c0.1,0,0.1,0,0.2,0h7c0.3,0,0.6-0.2,0.6-0.5l1.5-7.4c0-0.2,0.1-0.3,0.3-0.4l3.1-2.2  c0.3-0.2,0.7-0.2,0.9,0.1c0,0,0.1,0.1,0.1,0.1l5.3,10c0.1,0.2,0.3,0.4,0.6,0.4h7.9c0.4,0,0.7-0.3,0.7-0.7c0-0.1,0-0.2-0.1-0.3  l-8-14.1c-0.1-0.3-0.1-0.6,0.1-0.8l12.2-10.2c0.3-0.2,0.4-0.6,0.1-0.9C289.3,326.2,289.1,326.1,288.9,326.1z"/>
<path class="st0" d="M310.5,326.1h-14c-0.3,0-0.6,0.2-0.6,0.5l-5.5,26c-0.1,0.4,0.2,0.7,0.5,0.8c0,0,0.1,0,0.1,0h6.9  c0.3,0,0.6-0.2,0.6-0.5l1.9-9c0.1-0.3,0.3-0.5,0.6-0.5h4.7c2.7,0,3,1.2,2.4,4c-0.5,1.8-0.7,3.7-0.6,5.5c0,0.3,0.3,0.6,0.7,0.6h6.9  c0.4,0,0.7-0.3,0.7-0.7c0,0,0,0,0,0c0-1.7,0.2-3.5,0.7-5.2c0.8-3.5-0.3-5.3-1.3-6.2c-0.3-0.3-0.3-0.7,0-0.9c0.1-0.1,0.1-0.1,0.2-0.2  c2.8-1.1,4.7-3.8,4.6-6.8C319.9,328.9,316.2,326.1,310.5,326.1z M306.9,337.7h-4.5c-0.4,0-0.7-0.3-0.7-0.7c0,0,0-0.1,0-0.1l0.9-4.5  c0.1-0.3,0.3-0.5,0.6-0.5h4.5c2.1,0,3.2,0.9,3.2,2.6C311.1,336.8,309.2,337.7,306.9,337.7L306.9,337.7z"/>
<path class="st0" d="M353.9,326.1h-7c-0.3,0-0.6,0.2-0.6,0.5l-3.3,15.5c-1,4.8-2.6,5.9-5.6,5.9c-2.6,0-4.8-1.2-3.8-5.9l3.3-15.2  c0.1-0.4-0.2-0.7-0.5-0.8c0,0-0.1,0-0.1,0h-7c-0.3,0-0.6,0.2-0.6,0.5l-3.2,15.1c-2,9.5,3.6,12.4,11.2,12.4c9.6,0,13.1-3.3,14.9-11.7  l3.3-15.5c0.1-0.4-0.1-0.7-0.5-0.8C354.1,326.1,354,326.1,353.9,326.1z"/>
<path class="st0" d="M372.4,325.5c-7.6,0-12.4,3.6-12.4,9.1c0,3.8,2.4,6,9.7,7.9c4.2,1.1,5,1.9,5,3.4c0,1.9-1.9,2.6-4.3,2.6  c-3,0-4.6-1.2-5.1-3c-0.1-0.3-0.3-0.5-0.6-0.5h-6.9c-0.4,0-0.7,0.3-0.7,0.7c0,0,0,0.1,0,0.1c0.8,5.4,5.2,8.3,12.9,8.3  c8.9,0,13.7-3.8,13.7-9.2c0-3.9-2-6.5-9.9-8.5c-3.7-0.9-5-1.4-5-2.9s1.3-2.4,3.4-2.4c3,0,4.1,1.2,4.4,2.4c0.1,0.3,0.3,0.5,0.6,0.5  h6.7c0.4,0,0.7-0.3,0.7-0.7c0,0,0-0.1,0-0.1C384.3,329.2,381,325.5,372.4,325.5z"/>
<path class="st0" d="M417.7,326.1H395c-0.4,0-0.8,0.3-0.9,0.8l-0.9,4.2c-0.1,0.5,0.3,1.1,0.8,1.1c0,0,0.1,0,0.1,0h10.3  c0.6,0,1,0.5,0.9,1.1c0,0.2-0.1,0.4-0.3,0.6l-15.6,14c-0.1,0.1-0.3,0.3-0.3,0.5l-0.8,3.9c-0.1,0.5,0.3,1.1,0.8,1.1c0,0,0.1,0,0.1,0  H413c0.4,0,0.8-0.3,0.9-0.6l1.5-4.2c0.2-0.5-0.1-1.1-0.7-1.2c-0.1,0-0.2,0-0.2,0h-11.6c-0.6,0-1-0.5-0.9-1.1c0-0.2,0.1-0.4,0.3-0.6  l15.1-13.4c0.2-0.1,0.3-0.3,0.3-0.5l1-4.5c0.1-0.5-0.2-1.1-0.8-1.2C417.8,326.1,417.7,326.1,417.7,326.1z"/>
<path class="st0" d="M452,326.1h-7.2c-0.2,0-0.4,0.1-0.5,0.3c-2.5,3.4-5.7,7.5-7.6,10.2c-0.2,0.3-0.6,0.4-0.9,0.2  c-0.1-0.1-0.2-0.2-0.3-0.4c-0.7-2.7-1.9-6.6-3-9.8c-0.1-0.3-0.4-0.5-0.6-0.5h-7.6c-0.4,0-0.7,0.3-0.7,0.7c0,0.1,0,0.2,0,0.2  l6.5,15.7c0.2,0.3,0.2,0.7,0.2,1.1l-1.9,8.8c-0.1,0.4,0.2,0.7,0.5,0.8c0,0,0.1,0,0.1,0h7.1c0.3,0,0.6-0.2,0.6-0.5l1.7-8.1  c0-0.4,0.2-0.8,0.5-1.1l13.4-16.5c0.2-0.3,0.2-0.7-0.1-0.9C452.3,326.2,452.2,326.1,452,326.1z"/>
<path class="st0" d="M495.2,326.1h-6.9c-0.3,0-0.5,0.2-0.6,0.4c-2.3,5.4-5.7,13.3-7.6,19h-0.1c0.1-5.1-0.2-13-0.4-18.8  c0-0.4-0.3-0.6-0.7-0.6h-6.5c-0.3,0-0.5,0.1-0.6,0.4c-2.8,6-6.3,13.8-8.4,19.2h0c0.5-5,0.3-13,0.4-19c0-0.4-0.3-0.7-0.6-0.7  c0,0,0,0,0,0h-7c-0.4,0-0.7,0.3-0.7,0.6c0,0,0,0,0,0.1l1.3,26c0,0.4,0.3,0.6,0.7,0.6h7.8c0.3,0,0.5-0.1,0.6-0.4  c2.7-5.8,6.1-13.4,7.7-17.7h0.1c-0.1,4.1,0.1,11.1,0.4,17.4c0,0.4,0.3,0.6,0.7,0.6h7.9c0.3,0,0.5-0.2,0.6-0.4l12.7-26  c0.1-0.3,0-0.7-0.4-0.9C495.4,326.1,495.3,326.1,495.2,326.1z"/>
<path class="st0" d="M517.7,326.1h-10.1c-0.2,0-0.5,0.1-0.6,0.3l-14.9,26c-0.2,0.3-0.1,0.7,0.3,0.9c0.1,0.1,0.2,0.1,0.3,0.1h7.3  c0.2,0,0.5-0.1,0.6-0.3l2.6-4.6c0.1-0.2,0.3-0.3,0.6-0.3h9.3c0.3,0,0.6,0.2,0.7,0.6l0.6,4.1c0,0.3,0.3,0.6,0.7,0.6h7.2  c0.4,0,0.7-0.3,0.7-0.7c0,0,0-0.1,0-0.1l-4.5-26C518.3,326.3,518,326.1,517.7,326.1z M512.1,342.1h-4.6c-0.4,0-0.7-0.3-0.7-0.7  c0-0.1,0-0.2,0.1-0.3c2-3.9,3.6-7.2,4.6-9.4h0.1c0.1,2.1,0.6,5.6,1.1,9.6C512.9,341.7,512.6,342,512.1,342.1  C512.2,342.1,512.2,342.1,512.1,342.1L512.1,342.1z"/>
<path class="st0" d="M548.8,189.5c-0.5-5.5-0.9-11-1.4-16.6c-0.1-0.7,0-1.3,0.2-1.9c0.2-0.5,0.2-1,0-1.4l-4.9-10.2  c-0.3-0.6-0.6-1-1.3-1s-0.8,0.7-1.1,1.1c-0.8,1.8-1.7,3.7-2.5,5.6c-0.2,0.6-0.6,1-1.1,1.3c-6.5,3.3-12.9,6.6-19.4,9.9  c-0.3,0.2-0.7,0.4-1,0.2c-0.7-0.5-1.3-0.1-1.9,0.2L491.4,188c-0.4,0.2-0.8,0.3-1.2,0.2c-1.3-0.7-2.9-0.4-3.7,0.9  c-2.2,2.4-4.5,4.9-6.8,7.3c-3.9,4.1-7.4,8.4-11.6,12.1c-1,0.9-1.8,1.9-2.5,3c-1.8,2.7-3,5.7-3.7,8.8c-0.9,4-2,8.1-3,12.1  c-0.4,1.6-0.3,1.6-1.9,1.6c-3.3,0-6.6,0-9.9,0c-2.8,0-3.9,1.2-4,3.9c0,0.6,0,1.3,0,2c0,2.4,0,4.7,0,7.1c0,0.6-0.1,1.1-0.8,1.1  c-1.7,0-3.4,0-5.1-0.1c-0.5,0.1-0.9-0.2-1.1-0.7c-0.7-1.7-2.3-2.7-4.1-2.6c-0.6,0-0.9-0.2-1-0.9c-0.1-1.2-0.9-2.3-2.1-2.7  c-0.4-0.1-1-0.5-1.2,0.2c-0.1,0.6-0.5,1.4,0.3,1.8c0.5,0.3,1,0.6,0.8,1.2s-0.8,0.3-1.2,0.3c-6.3,0-12.6,0-18.9,0  c-2.1,0-2.5,0.4-2.5,2.5c0,0.6-0.2,0.8-0.8,0.8c-0.7,0-1.4,0.1-2.2,0.2c-1.1,0.1-2.1,0.7-2.9,1.5c-0.8,1-1.9,2.1-2,3.3  c-0.2,2.7-0.2,5.3,0,8c0.1,1.8,1.5,3.2,3.3,3.4c0.7,0.1,1.4,0.2,2.1,0.2c2.4,0,4.9,0,7.3,0.1c0.4-0.1,0.8,0,1.1,0.3l-28.2,15.9  l-122.8-0.2c-1.4,0-2.5,1-2.7,2.3l-5.6,32.1c-0.3,1.5,0.7,3,2.3,3.3c0.2,0,0.3,0,0.5,0h273.4c1.4,0,2.6-1.1,2.8-2.5l4.4-31.7  c0.2-1.2-0.4-2.3-1.4-2.9l0.1-0.1c-0.3-0.2-0.6-0.4-0.9-0.5c-9.3-4-18.4-8.6-28-11.7c-1.5-0.5-3-1-4.4-1.6c-0.2-0.1-0.5-0.2-0.7,0  s0.1,0.5,0.2,0.8c0.3,0.5,0.7,1,1,1.6l3.1,4.7c-0.4,0-0.9-0.2-1.2-0.5c-6.1-4.6-12.2-9.3-18.3-13.9c-0.4-0.4-1-0.5-1.5-0.4  c-2.4,0.5-4.8,1-7.2,1.4c-1.2,0.2-1.3,0.1-1.3-1.1c0-5.3-0.5-10.7-1.6-15.9c-0.5-2.7-1.7-5.3-3.5-7.3c-0.5-0.4-0.6-1.1-0.3-1.7  c1-2.4,2-4.8,3.1-7.2c2.1-4.6,4.7-8.8,8.7-11.9c3-2.3,5.9-4.6,9-6.8c11-7.7,22.4-14.8,33.7-21.9l5.8-3.6c0.2-0.1,0.4-0.4,0.7-0.2  s0.1,0.5,0.1,0.7s-0.1,0.5-0.1,0.7c-0.3,3.8-0.7,7.6-1,11.4c-0.4,4.9-0.9,9.9-1.3,14.8c-0.5,5.8-1,11.6-1.5,17.4  c-0.3,3.9-0.6,7.8-0.9,11.8c0,0.5-0.3,0.9-0.7,1c-1,0.4-1.8,0.8-2.7,1.4c-0.7,0.5-1.6,0.6-2.3,0.2c-5.7-2.1-11.4-4.1-17.1-6.1  c-0.7-0.2-1.3-0.6-1.8-1.2c-1.6-1.8-3.2-3.6-4.9-5.4c-0.8-0.8-1.5-1.8-2.5-2.1c-1.8-0.4-2.3-1.6-2.6-3.1c-0.2-1-0.7-1.9-1.6-2.4  c-0.4-0.3-0.9-0.3-1.3,0c-0.4,0.3-0.5,0.8-0.4,1.2c0.2,1,0.4,2,0.5,3l1.8,10c0.6,3.3,1.2,6.5,1.8,9.8c0.3,2.2,0.8,4.4,1.3,6.5  c1.5,4.9,5.7,7.5,10.2,8c3.7,0.4,7.5-0.3,10.8-2.2c5.2-2.9,9.8-6.5,14.7-9.9c1.7-1.2,2.5-3.4,1.8-4.9c-0.4-1-0.5-2.1-0.2-3.1  c0.2-1.6,1.1-3.1,2.4-4c1.7-1.1,3.2-2.5,4.8-3.8c0.9-0.7,0.9-1.1,0.3-2.1c-0.5-0.7-0.9-1.4-1.4-2.1c-0.3-0.3-0.3-0.8-0.2-1.2  c1.2-4.3,2.2-8.5,3.5-12.8c0.4-1.2,0.1-2.8,1.7-3.5c0.1,0,0.1-0.2,0.2-0.4c1.1-4.1,2.1-8.3,3.2-12.4c0.6-2.3,1.2-4.7,1.8-7  c0.1-0.4,0.2-0.8,0.7-0.8C548.8,190.7,548.8,190.2,548.8,189.5z M443.8,257.6c0.3,0.6-0.1,1.1,0.2,1.7c0.9-1.1,1.8-2.1,2.5-3.2  c1.9-2.7,4.7-4.5,7.1-6.6c0.5-0.5,0.7-0.1,0.9,0.4c0.5,1.2,0,2.6-1,3.4c-0.4,0.3-1.2,0.8-1,1.3s1.1,0.2,1.6,0.1c0.8,0,1.2,0.2,1.3,1  c0.1,0.6,0.2,1.2,0.5,1.7c0.4,0.8,0.1,1.2-0.6,1.5c-5.3,2.8-10.6,5.5-15.9,8.3c-0.4,0.2-0.8,0.4-1.2,0.6c-0.3,0.1-0.7,0.7-0.9-0.1  c-0.1-0.3-0.5,0-0.7,0.1c-0.7,0.4-1.4,0.9-2,1.4c-2.8,2.2-6.2,3.2-9.4,4.7c-0.2,0.1-0.6,0.1-0.7-0.1L443.8,257.6z M303.6,288.1  l-5.5,21.9c-0.1,0.3-0.3,0.5-0.6,0.5h-7c-0.4,0-0.6-0.3-0.6-0.6c0-0.1,0-0.1,0-0.2l1.7-7c0.9-3.7,2.2-8.1,3.1-10.9h-0.1  c-2.2,4.5-5.6,10.2-10.1,18.3c-0.1,0.2-0.3,0.3-0.6,0.3h-6c-0.3,0-0.6-0.3-0.6-0.6c-0.2-7.1-0.4-13.5-0.5-18.1h-0.1  c-0.5,2.7-1.3,7.2-2.3,11.2l-1.8,7.1c-0.1,0.3-0.3,0.5-0.6,0.5h-6.3c-0.4,0-0.6-0.3-0.6-0.7c0,0,0-0.1,0-0.1l5.5-21.9  c0.1-0.3,0.3-0.5,0.6-0.5h11.1c0.3,0,0.6,0.3,0.6,0.6c0.3,5,0.6,11.1,0.5,14.1h0c1.5-3.2,5-9.2,8-14.4c0.1-0.2,0.3-0.3,0.5-0.3h11  C303.4,287.4,303.7,287.7,303.6,288.1C303.6,288.1,303.6,288.1,303.6,288.1z M334.5,310.5h-7.2c-0.3,0-0.6-0.2-0.6-0.5l-0.6-3.4  c-0.1-0.3-0.3-0.5-0.6-0.5h-9.5c-0.2,0-0.4,0.1-0.5,0.3l-2.6,3.9c-0.1,0.2-0.3,0.3-0.5,0.3h-7.3c-0.4,0-0.6-0.3-0.6-0.6  c0-0.1,0-0.3,0.1-0.4l14.8-21.9c0.1-0.2,0.3-0.3,0.5-0.3H330c0.3,0,0.6,0.2,0.6,0.5l4.5,21.9c0.1,0.3-0.2,0.7-0.5,0.8  C334.6,310.5,334.5,310.6,334.5,310.5z M373.8,288.5l-11.9,8.5c-0.3,0.2-0.4,0.6-0.2,0.9l7.8,11.7c0.2,0.3,0.1,0.7-0.2,0.9  c-0.1,0.1-0.2,0.1-0.4,0.1h-7.9c-0.2,0-0.4-0.1-0.5-0.3l-5.4-8.5c-0.2-0.3-0.6-0.4-0.9-0.2l-3.2,2c-0.1,0.1-0.3,0.2-0.3,0.4  l-1.5,6.2c-0.1,0.3-0.3,0.5-0.6,0.5h-7.1c-0.4,0-0.6-0.3-0.6-0.6c0-0.1,0-0.1,0-0.2l5.5-21.9c0.1-0.3,0.3-0.5,0.6-0.5h7  c0.4,0,0.6,0.3,0.6,0.6c0,0.1,0,0.1,0,0.2l-1.7,7c-0.1,0.3,0.1,0.7,0.5,0.8c0.2,0,0.4,0,0.5-0.1c3.4-2.5,6.7-5.1,11-8.3  c0.1-0.1,0.2-0.1,0.4-0.1h8c0.4,0,0.6,0.3,0.6,0.6C374,288.2,373.9,288.4,373.8,288.5L373.8,288.5z M388.9,288.2l-5.5,21.9  c-0.1,0.3-0.3,0.5-0.6,0.5h-7.1c-0.4,0-0.6-0.3-0.6-0.6c0-0.1,0-0.1,0-0.2l5.5-21.9c0.1-0.3,0.3-0.5,0.6-0.5h7.1  c0.4,0,0.6,0.3,0.6,0.6C388.9,288,388.9,288.1,388.9,288.2L388.9,288.2z M420.6,288.2l-1,3.9c-0.1,0.3-0.3,0.5-0.6,0.5h-13.6  c-0.3,0-0.6,0.2-0.6,0.5l-0.5,2.2c-0.1,0.3,0.1,0.7,0.5,0.8c0,0,0.1,0,0.1,0h12.3c0.4,0,0.6,0.3,0.6,0.6c0,0.1,0,0.1,0,0.2l-1,3.9  c-0.1,0.3-0.3,0.5-0.6,0.5h-12.9c-0.3,0-0.6,0.2-0.6,0.5l-0.7,2.8c-0.1,0.3,0.1,0.7,0.5,0.8c0,0,0.1,0,0.1,0h14.2  c0.3,0,0.6,0.3,0.6,0.6c0,0.1,0,0.2-0.1,0.3l-1.7,3.9c-0.1,0.2-0.3,0.4-0.6,0.4h-22c-0.4,0-0.6-0.3-0.6-0.7c0,0,0-0.1,0-0.1  l5.5-21.9c0.1-0.3,0.3-0.5,0.6-0.5H420c0.4,0,0.6,0.3,0.6,0.7C420.7,288.1,420.6,288.1,420.6,288.2L420.6,288.2z M421.3,271.2  c-2,0.5-3.9,1.1-5.9,1.6c-4.3,1.1-8.6,2.3-12.9,3.4c-1.8,0.5-3.7,0.9-5.5,1.3c-0.2,0-0.4,0-0.6,0c0.2-0.5,0.6-0.6,0.9-0.8  c7.3-4.2,14.6-8.5,21.9-12.7c0.3-0.2,0.6-0.6,0.9-0.3s0,0.7,0,1c-0.2,0.7-0.4,1.5-0.5,2.3c-0.1,0.7-0.5,1.3-1.2,1.5  c-1.6,0.6-3.1,1.4-4.6,2l0.1,0.3c1.2-0.2,2.4-0.6,3.5-1c1.6-0.7,2.9,0,4.2,0.6c0.2,0.1,0.3,0.2,0.3,0.4S421.5,271.1,421.3,271.2  L421.3,271.2z M446.6,306.3l-1.7,3.9c-0.1,0.2-0.3,0.4-0.6,0.4h-20.5c-0.4,0-0.6-0.3-0.6-0.6c0-0.1,0-0.1,0-0.2l5.5-21.9  c0.1-0.3,0.3-0.5,0.6-0.5h7.1c0.4,0,0.6,0.3,0.6,0.6c0,0.1,0,0.1,0,0.2l-4.1,16.4c-0.1,0.3,0.1,0.7,0.5,0.8c0.1,0,0.1,0,0.2,0H446  c0.4,0,0.6,0.3,0.6,0.6C446.7,306.1,446.6,306.2,446.6,306.3L446.6,306.3z M493.7,287.4h7c0.4,0,0.6,0.3,0.6,0.6c0,0,0,0.1,0,0.1  l-1.7,7c-0.1,0.3,0.1,0.7,0.4,0.8c0.2,0.1,0.4,0,0.6-0.1c3.4-2.5,6.7-5.1,11-8.3c0.1-0.1,0.2-0.1,0.4-0.1h8c0.4,0,0.6,0.3,0.6,0.6  c0,0.2-0.1,0.4-0.3,0.5l-11.9,8.4c-0.3,0.2-0.3,0.6-0.2,0.9l7.8,11.7c0.2,0.3,0.1,0.7-0.2,0.9c-0.1,0.1-0.2,0.1-0.4,0.1h-7.9  c-0.2,0-0.4-0.1-0.5-0.3l-5.4-8.5c-0.2-0.3-0.6-0.4-0.9-0.2l-3.2,2c-0.1,0.1-0.3,0.2-0.3,0.4l-1.5,6.2c-0.1,0.3-0.3,0.5-0.6,0.5  h-7.1c-0.4,0-0.6-0.3-0.6-0.7c0,0,0-0.1,0-0.1l5.5-21.9C493.2,287.6,493.4,287.4,493.7,287.4L493.7,287.4z M483.3,262  c0.2-0.1,0.4,0,0.6,0.1c0.8,0.9,1.5,1.8,2.3,2.7c0.3,0.4-0.2,0.5-0.4,0.7c-0.5,0.4-0.4,0.7,0.1,0.8c2.1,0.1,3,1.7,4.1,3.1  c1,1.1,1.9,2.3,3,3.6c-0.4,0-0.8-0.2-1.2-0.4c-3.4-2.2-6.9-4.3-10.3-6.5c-0.5-0.3-0.9-0.6-0.9-1.2c0-0.9-0.5-1.2-1.3-1.1  c-0.3,0-0.5,0-0.8-0.1C480,262.9,481.6,262.4,483.3,262z M477.3,287.8l4.5,21.9c0.1,0.3-0.2,0.7-0.5,0.8c0,0-0.1,0-0.1,0h-7.2  c-0.3,0-0.6-0.2-0.6-0.5l-0.6-3.4c-0.1-0.3-0.3-0.5-0.6-0.5h-9.5c-0.2,0-0.4,0.1-0.5,0.3l-2.6,3.9c-0.1,0.2-0.3,0.3-0.5,0.3h-7.3  c-0.4,0-0.6-0.3-0.6-0.7c0-0.1,0-0.2,0.1-0.3l14.8-21.9c0.1-0.2,0.3-0.3,0.5-0.3h10.2C477,287.3,477.2,287.6,477.3,287.8  L477.3,287.8z M476.4,280.8h-10.2c-0.4-0.9-0.8-1.8-1.1-2.7c-0.8-2.5-2.1-4.4-4.7-5.1c-0.1,0-0.1-0.1-0.2-0.1  c-0.5-0.4-1.2-0.3-1.6,0.2c-2.6,2.6-5.3,5.1-8,7.7h-3c3-3.1,6-6.2,9-9.3c0.4-0.5,1-0.7,1.6-0.4c1.8,0.5,3.8,1.6,5.6-0.2  c0.3-0.3,0.7,0,0.9,0.3c0.6,0.7,1.2,1.4,1.8,2c0.9,1.1,1.9,2.2,3,3.1C471.7,277.8,474.1,279.3,476.4,280.8L476.4,280.8z   M469.8,243.4c1,3.4,1.6,7,1.8,10.5c0,0.2,0.1,0.5-0.2,0.6s-0.4-0.1-0.6-0.2c-4.7-3.1-9.5-6.1-14.3-9.2c-0.4-0.2-0.6-0.6-0.5-1.1  c0-1.8,0-3.6,0-5.4c0-0.6,0.3-0.9,0.9-0.9c1,0,2,0,3,0l0,0c0.9,0,1.7,0,2.5,0C466.3,237.9,468.6,239.7,469.8,243.4L469.8,243.4z   M517,244.4c-6.3-1.5-12.6-3.1-18.9-4.7c-0.9-0.2-1.7-0.5-2.5-0.8c-1.3-0.5-2.3-1.5-2.7-2.9c-0.5-1.8-0.8-3.6-1.1-5.4  c-0.1-0.6,0.1-0.7,0.6-0.4c1.7,0.7,3.1,1.8,4.1,3.4c2.7,4.2,2.9,4.2,8,5.8s9.9,3.5,14.9,5.2C518.5,245,517.8,244.5,517,244.4  L517,244.4z M541.1,172.4c1.4,0,2.6,1.2,2.6,2.6c0,0,0,0,0,0c-0.1,1.5-1.3,2.6-2.7,2.7c-1.4,0-2.6-1.1-2.6-2.5c0,0,0,0,0-0.1  C538.4,173.6,539.6,172.3,541.1,172.4L541.1,172.4z M531.5,174.3c-12.7,6.5-25.3,13-37.9,19.6l-0.7,0.3c-0.8-0.2-0.6-1-0.9-1.5  s0-0.7,0.5-0.9c2.3-1.1,4.6-2.3,6.9-3.4l16.9-8.3c0.4-0.2,0.9-0.4,0.9-0.8c0.1-1,0.8-1.2,1.5-1.6l16.3-8.3c0.3-0.1,0.6-0.5,0.9-0.2  s-0.1,0.6-0.2,0.9C535.1,172.2,533.5,173.2,531.5,174.3L531.5,174.3z M536,232.3c-1,0.8-1.9,1.6-2.9,2.3c-0.1,0.1-0.3,0.3-0.5,0.2  c-0.1-0.1-0.2-0.2-0.1-0.3c0.5-2,0.9-3.7,1.3-5.5c0-0.2,0.2-0.4,0.4-0.6c0.3-0.1,0.4,0.2,0.5,0.4c0.5,0.8,1,1.6,1.6,2.3  c0.3,0.3,0.2,0.8-0.1,1.1C536,232.2,536,232.2,536,232.3L536,232.3z M543.7,191.9c-0.5,2.2-1.1,4.5-1.6,6.8  c-0.9,3.9-1.9,7.8-2.8,11.7c0,0.2-0.1,0.4,0,0.5c1.1,0.6,0.4,1.5,0.2,2.2c-1.1,4.1-2.2,8.3-3.3,12.4c-0.1,0.4,0,1-0.5,1  s-0.6-0.6-0.9-1c-0.1-0.2-0.1-0.4-0.1-0.6c0.3-1.4,0.7-2.9,1-4.2l3-12.5l2.6-10.9c0.4-1.8,0.9-3.6,1.3-5.3c0.1-0.2,0.1-0.5,0.3-0.7  c0.2-0.2,0.5-0.2,0.7-0.1C543.8,191.3,543.8,191.6,543.7,191.9L543.7,191.9z"/>
<path class="st0" d="M509.6,237.3c3.2,1.2,6.5,2.1,9.8,2.7c2,0.4,2,0.4,2.4-1.6c0-0.2,0.1-0.4,0.2-0.7c0.3-1.5,0.6-3.1,0.9-4.7  c0-0.4-0.2-0.6-0.4-0.9c-1-1.4-2-2.9-2.9-4.3c-0.9-1.3-0.9-1.3-2.4-0.8c-0.5,0.2-1.1,0.4-1.6,0.5c-1.2,0.3-2.2,1.1-2.8,2.2  c-1.2,2-2.5,3.9-3.7,5.9C508.3,236.8,508.4,236.8,509.6,237.3z"/>
<path class="st0" d="M507.6,227.1c-0.3-0.1-0.6-0.3-0.9-0.5c-1.1-0.4-1.9-1.3-2-2.5c-0.1-0.5-0.3-1.1-0.6-1.5  c-0.2-0.6-0.5-0.7-0.9-0.1l-3.2,5c-0.2,0.3-0.2,0.6,0,0.9c0.5,0.9,1.2,1.6,2,2.2c1.4,0.8,2.5,2,3.2,3.5c0.1,0.2,0.3,0.4,0.4,0.7  c0.2,0.4,0.5,0.4,0.8,0.1c1.2-1.5,3.2-2.6,2.6-5C509.5,228.4,508.9,227.6,507.6,227.1z"/>
<path class="st0" d="M483.5,250.6c0.7,1.7,1.4,3.1,3.4,3.7c1.5,0.5,1.4,0.6,2.4-0.6c0.5-0.6,1.3-1,1.1-2c-0.3-1.9-0.6-3.8-0.9-5.6  c-0.1-0.4-0.3-0.5-0.7-0.6c-1.7-0.6-3.3-0.7-4.4,1.1c-0.1,0.1-0.2,0.2-0.3,0.4C482.4,248.8,482.5,248.2,483.5,250.6z"/>
<path class="st0" d="M494.2,223.2c-0.3,0.1-0.5,0.5-0.4,0.9c0.4,1.8,1.7,2.8,3.1,3.7c0.1,0,0.3,0,0.4,0c0.8-0.8,1.5-1.7,1.9-2.8  c-0.4-0.7,0.2-1.7-0.7-2.3c-1.4-1-1.4-1.1-2.9-0.2L494.2,223.2z"/>
<path class="st0" d="M500.1,213.7c-1.3,1.4-2.8,2.6-3.4,4.5c-0.2,0.6-0.1,0.9,0.6,1l2.7,0.4c0.4,0.1,0.7,0,0.8-0.3  c0.4-0.7,0.6-1.5,0.7-2.3c0-1-0.2-2.1-0.6-3.1C500.7,213.4,500.4,213.3,500.1,213.7z"/>
<path class="st0" d="M493.8,260.6c-0.2,0.4-0.5,0.7-0.9,1c-0.6,0.4-0.5,0.7,0,1.1c0.3,0.3,0.8,0.5,1.3,0.5c0.5,0.1,1-0.2,1.2-0.7  c0.2-0.6,0.6-1,1.2-1.2c0.3-0.1,0.5-0.3,0.3-0.6c-0.6-0.9-1.7-1.1-2.6-0.5C494.1,260.3,494,260.5,493.8,260.6z"/>
<path class="st0" d="M485.5,241.2c0.5,0.1,1-0.2,1.1-0.7c0.2-0.6,0.6-1,1.2-1.2c0.5-0.2,0.5-0.5,0.1-0.8c-0.3-0.2-0.6-0.3-0.9-0.5  c-0.8-0.6-1.4-0.4-1.9,0.4c-0.2,0.4-0.5,0.7-0.8,1c-0.8,0.6-0.8,0.8,0.1,1.4C484.7,241.1,485.1,241.3,485.5,241.2z"/>
<path class="st0" d="M490.5,259.8c0.4-0.3,0.6-0.7,0.5-1.2c0-0.5-0.1-1.1-0.4-1.2c-0.7-0.2-1,0.6-1.3,1s-0.8,0.8-0.3,1.2  C489.4,260,490,260,490.5,259.8z"/>
<path class="st0" d="M466.5,300.9h4.5c0.4,0,0.6-0.3,0.6-0.6c0,0,0-0.1,0-0.1c-0.6-3.4-1-6.2-1.1-8h-0.1c-0.9,1.8-2.5,4.6-4.5,7.8  c-0.2,0.3,0,0.7,0.3,0.9C466.3,300.9,466.4,300.9,466.5,300.9z"/>
<path class="st0" d="M323.8,292.1c-0.9,1.8-2.5,4.6-4.5,7.8c-0.2,0.3-0.1,0.7,0.2,0.9c0.1,0.1,0.2,0.1,0.4,0.1h4.5  c0.4,0,0.6-0.3,0.6-0.6c0,0,0-0.1,0-0.1c-0.6-3.4-1-6.2-1.1-8L323.8,292.1z"/>
</svg>