<?xml version="1.0" encoding="utf-8"?>
<!-- Generator: Adobe Illustrator 25.2.3, SVG Export Plug-In . SVG Version: 6.00 Build 0)  -->
<svg version="1.1" id="Слой_1" xmlns="http://www.w3.org/2000/svg" xmlns:xlink="http://www.w3.org/1999/xlink" x="0px" y="0px"
	 viewBox="0 0 800 600" style="enable-background:new 0 0 800 600;" xml:space="preserve">
<style type="text/css">
	.st0{fill:#1B0F21;}
</style>
<path class="st0" d="M288.8,346.4l-12.2,10.2c-0.2,0.2-0.3,0.6-0.2,0.8l8,14.1c0.3,0.4-0.1,1-0.6,1h-7.9c-0.2,0-0.5-0.1-0.6-0.4
	l-5.3-10c-0.2-0.4-0.6-0.5-1-0.2l-3.1,2.2c-0.1,0.1-0.2,0.2-0.3,0.4l-1.6,7.4c-0.1,0.3-0.3,0.5-0.7,0.5h-7c-0.4,0-0.7-0.4-0.7-0.8
	l5.5-26c0.1-0.3,0.3-0.5,0.7-0.5h7c0.4,0,0.7,0.4,0.7,0.8l-1.8,8.4c-0.1,0.6,0.6,1.1,1.1,0.6c3.3-2.9,6.6-5.9,10.9-9.7
	c0.1-0.1,0.3-0.2,0.4-0.2h8.1C288.9,345.2,289.2,346,288.8,346.4z M319.3,352.6c0,3.5-1.9,5.6-4.6,6.8c-0.4,0.2-0.6,0.8-0.2,1.1
	c1,0.9,2.1,2.7,1.3,6.2c-0.5,2.1-0.7,3.9-0.7,5.2c0,0.4-0.3,0.7-0.7,0.7h-6.9c-0.3,0-0.6-0.2-0.7-0.6c-0.1-1.1,0-2.8,0.6-5.5
	c0.6-2.8,0.3-4-2.4-4h-4.7c-0.3,0-0.6,0.2-0.7,0.5l-1.9,9c-0.1,0.3-0.3,0.5-0.7,0.5h-6.9c-0.4,0-0.7-0.4-0.7-0.8l5.5-26
	c0.1-0.3,0.3-0.5,0.7-0.5h14C315.6,345.2,319.3,348.1,319.3,352.6z M310.5,353.6c0-1.7-1.1-2.6-3.2-2.6h-4.5c-0.3,0-0.6,0.2-0.7,0.5
	l-0.9,4.5c-0.1,0.4,0.2,0.8,0.7,0.8h4.4C308.6,356.9,310.5,355.9,310.5,353.6z M353.3,345.2h-7c-0.3,0-0.6,0.2-0.7,0.5l-3.3,15.5
	c-1,4.8-2.6,5.9-5.6,5.9c-2.6,0-4.8-1.2-3.8-5.9l3.3-15.2c0.1-0.4-0.2-0.8-0.7-0.8h-7c-0.3,0-0.6,0.2-0.7,0.5l-3.2,15.1
	c-2,9.5,3.6,12.4,11.2,12.4c9.6,0,13.1-3.3,14.9-11.7L354,346C354.1,345.6,353.7,345.2,353.3,345.2z M371.8,344.6
	c-7.6,0-12.4,3.6-12.4,9.1c0,3.8,2.4,6,9.7,7.9c4.2,1.1,5,1.9,5,3.4c0,1.9-1.8,2.6-4.3,2.6c-3,0-4.6-1.2-5.1-3
	c-0.1-0.3-0.3-0.5-0.6-0.5h-6.9c-0.4,0-0.7,0.4-0.7,0.8c0.8,5.4,5.2,8.3,12.9,8.3c8.9,0,13.7-3.8,13.7-9.2c0-3.9-2-6.5-9.8-8.5
	c-3.7-0.9-5-1.4-5-2.9c0-1.4,1.3-2.4,3.4-2.4c3,0,4.1,1.2,4.4,2.4c0.1,0.3,0.3,0.5,0.6,0.5h6.7c0.4,0,0.7-0.4,0.7-0.8
	C383.7,348.4,380.4,344.6,371.8,344.6z M417.1,345.2h-22.7c-0.5,0-0.8,0.3-0.9,0.8l-0.9,4.2c-0.1,0.6,0.3,1.2,0.9,1.2h10.3
	c0.9,0,1.3,1.1,0.6,1.7l-15.6,14c-0.2,0.1-0.3,0.3-0.3,0.5l-0.8,3.9c-0.1,0.6,0.3,1.2,0.9,1.2h23.8c0.4,0,0.8-0.3,0.9-0.6l1.5-4.2
	c0.2-0.6-0.2-1.3-0.9-1.3h-11.7c-0.9,0-1.3-1.1-0.6-1.7l15.1-13.4c0.2-0.1,0.3-0.3,0.3-0.5l1-4.5
	C418.1,345.8,417.7,345.2,417.1,345.2z M451.4,345.2h-7.2c-0.2,0-0.4,0.1-0.5,0.3c-2.5,3.4-5.7,7.5-7.6,10.2c-0.3,0.5-1,0.3-1.2-0.2
	c-0.7-2.7-1.9-6.6-3-9.8c-0.1-0.3-0.3-0.5-0.6-0.5h-7.6c-0.5,0-0.8,0.5-0.6,0.9l6.5,15.7c0.2,0.4,0.3,0.6,0.2,1.1l-1.9,8.8
	c-0.1,0.4,0.2,0.8,0.7,0.8h7.1c0.3,0,0.6-0.2,0.7-0.5l1.7-8.1c0.1-0.6,0.2-0.9,0.5-1.1l13.4-16.5C452.3,345.9,452,345.2,451.4,345.2
	z M494.7,345.2h-6.9c-0.3,0-0.5,0.2-0.6,0.4c-2.3,5.4-5.7,13.3-7.6,19h-0.1c0.1-5.1-0.3-13-0.4-18.8c0-0.4-0.3-0.6-0.7-0.6h-6.5
	c-0.3,0-0.5,0.1-0.6,0.4c-2.8,6-6.3,13.8-8.4,19.2h-0.1c0.5-5,0.3-13,0.4-19c0-0.4-0.3-0.7-0.7-0.7h-7c-0.4,0-0.7,0.3-0.7,0.7
	l1.3,26c0,0.4,0.3,0.6,0.7,0.6h7.8c0.3,0,0.5-0.1,0.6-0.4c2.7-5.8,6.1-13.4,7.7-17.7h0.1c-0.1,4.1,0.1,11.1,0.4,17.4
	c0,0.4,0.3,0.6,0.7,0.6h7.9c0.3,0,0.5-0.1,0.6-0.4l12.7-26C495.5,345.7,495.1,345.2,494.7,345.2z M517.8,345.8l4.5,26
	c0.1,0.4-0.2,0.8-0.7,0.8h-7.1c-0.3,0-0.6-0.2-0.7-0.6l-0.6-4.1c0-0.3-0.3-0.6-0.7-0.6h-9.3c-0.2,0-0.5,0.1-0.6,0.3l-2.6,4.6
	c-0.1,0.2-0.3,0.3-0.6,0.3h-7.3c-0.5,0-0.8-0.6-0.6-1l14.9-26c0.1-0.2,0.3-0.3,0.6-0.3h10.1C517.4,345.2,517.7,345.5,517.8,345.8z
	 M512.2,360.5c-0.6-4-1-7.5-1.1-9.6H511c-0.9,2.2-2.6,5.5-4.6,9.4c-0.2,0.4,0.1,1,0.6,1h4.6C512,361.2,512.3,360.9,512.2,360.5z
	 M547.3,209.9c-0.5,0-0.6,0.4-0.7,0.8c-0.6,2.3-1.2,4.7-1.8,7c-1.1,4.1-2.1,8.3-3.2,12.4c0,0.1-0.1,0.3-0.1,0.3
	c-1.6,0.6-1.3,2.3-1.7,3.5c-1.2,4.2-2.3,8.5-3.5,12.8c-0.1,0.4-0.1,0.8,0.2,1.2c0.5,0.7,1,1.4,1.4,2.1c0.6,0.9,0.6,1.4-0.3,2.1
	c-1.6,1.3-3.1,2.7-4.8,3.8c-1.5,1-2.1,2.4-2.4,4c-0.2,1.1-0.3,2,0.2,3.1c0.7,1.5-0.1,3.8-1.8,4.9c-4.9,3.3-9.5,7-14.7,9.8
	c-3.3,1.9-7,2.6-10.8,2.2c-4.5-0.5-8.7-3.1-10.2-8c-0.6-2.1-0.9-4.4-1.3-6.5c-0.6-3.2-1.2-6.5-1.8-9.8c-0.6-3.3-1.2-6.7-1.8-10
	c-0.2-1-0.3-2-0.5-3c-0.1-0.5-0.1-0.9,0.4-1.2c0.4-0.3,0.9-0.2,1.3,0c0.9,0.5,1.4,1.4,1.6,2.4c0.3,1.6,0.9,2.7,2.6,3.1
	c1.1,0.3,1.8,1.3,2.5,2.1c1.6,1.8,3.3,3.6,4.9,5.4c0.5,0.6,1.1,0.9,1.8,1.2c5.7,2,11.4,4,17.1,6.1c0.9,0.3,1.6,0.3,2.3-0.2
	c0.8-0.6,1.7-1.1,2.7-1.4c0.5-0.2,0.7-0.5,0.7-1c0.3-3.9,0.5-7.8,0.9-11.8c0.5-5.8,1-11.6,1.4-17.4c0.4-4.9,0.9-9.9,1.3-14.8
	c0.3-3.8,0.7-7.6,1-11.4c0-0.2,0.1-0.5,0.1-0.7c0-0.2,0.1-0.6-0.1-0.7c-0.3-0.2-0.5,0.1-0.7,0.2c-1.9,1.2-3.9,2.4-5.8,3.6
	c-11.4,7.1-22.7,14.2-33.7,21.9c-3.1,2.2-6.1,4.5-9,6.8c-4,3.2-6.7,7.3-8.7,11.9c-1.1,2.4-2.1,4.8-3.1,7.2c-0.3,0.6-0.2,1.1,0.3,1.7
	c2,2,2.9,4.6,3.5,7.3c1.3,5.2,1.5,10.6,1.6,15.9c0,1.2,0.2,1.3,1.3,1.1c2.4-0.5,4.8-0.9,7.2-1.4c0.6-0.1,1.1,0.1,1.5,0.4
	c6.1,4.7,12.2,9.3,18.3,13.9c0.3,0.2,0.5,0.5,1.2,0.5c-1.1-1.7-2.1-3.2-3.1-4.7c-0.3-0.5-0.7-1-1-1.6c-0.1-0.2-0.5-0.5-0.2-0.8
	c0.2-0.2,0.5,0,0.7,0c1.5,0.5,2.9,1.1,4.4,1.6c9.7,3.2,18.7,7.7,28,11.7c0.3,0.1,0.6,0.3,0.9,0.5c0,0-0.1,0-0.1,0.1
	c1,0.5,1.6,1.7,1.4,2.9l-4.4,31.7c-0.2,1.4-1.4,2.5-2.8,2.5H254.6c-1.7,0-3-1.6-2.7-3.4l5.7-32.2c0.2-1.4,1.4-2.3,2.7-2.3l122.8,0.2
	c9.4-5.3,18.8-10.6,28.2-15.9c-0.3-0.4-0.7-0.3-1.1-0.3c-2.4,0-4.9-0.1-7.3-0.1c-0.7,0-1.4-0.1-2.1-0.2c-1.8-0.3-3.1-1.6-3.3-3.4
	c-0.2-2.6-0.2-5.3,0-8c0.1-1.2,1.1-2.3,2-3.3c0.7-0.9,1.8-1.3,2.9-1.5c0.7-0.1,1.4-0.2,2.2-0.2c0.6,0,0.8-0.2,0.8-0.8
	c0-2.1,0.5-2.5,2.5-2.5c6.3,0,12.6,0,18.9,0c0.4,0,1.1,0.3,1.2-0.3c0.1-0.6-0.3-0.9-0.8-1.2c-0.9-0.5-0.5-1.2-0.3-1.8
	c0.2-0.8,0.8-0.4,1.2-0.2c1.3,0.5,1.9,1.5,2.1,2.7c0.1,0.7,0.4,0.9,1,0.9c1.9,0,3.3,0.8,4.1,2.6c0.2,0.5,0.6,0.7,1.1,0.7
	c1.7,0,3.4,0,5.1,0c0.7,0,0.8-0.5,0.8-1c0-2.4,0-4.7,0-7.1c0-0.7,0-1.3,0-2c0.1-2.7,1.2-3.9,4-3.9c3.3,0,6.6,0,9.9,0
	c1.6,0,1.5,0,1.9-1.6c1-4,2-8,3-12.1c0.7-3.2,1.8-6.1,3.7-8.8c0.7-1.1,1.5-2.1,2.5-3c4.2-3.7,7.8-8,11.7-12.1
	c2.3-2.4,4.5-4.8,6.8-7.3c1.2-1.3,2.1-1.5,3.7-0.8c0.5,0.2,0.8,0,1.2-0.2c7.7-3.8,15.4-7.6,23.1-11.4c0.6-0.3,1.2-0.7,1.9-0.2
	c0.3,0.2,0.7,0,1-0.2c6.5-3.3,12.9-6.6,19.4-9.9c0.6-0.3,0.9-0.8,1.1-1.3c0.8-1.9,1.6-3.7,2.5-5.6c0.2-0.5,0.4-1.1,1.1-1.1
	c0.7,0,1,0.5,1.3,1.1c1.6,3.4,3.3,6.8,4.9,10.2c0.2,0.5,0.2,1,0,1.4c-0.2,0.6-0.3,1.3-0.2,1.9c0.5,5.5,0.9,11,1.4,16.5
	C548.2,209.3,548.2,209.8,547.3,209.9z M423.7,292.8c0.3,0.3,0.5,0.2,0.7,0.2c3.2-1.4,6.6-2.5,9.4-4.7c0.6-0.5,1.3-0.9,2-1.4
	c0.2-0.1,0.6-0.4,0.7-0.1c0.3,0.8,0.6,0.2,0.9,0.1c0.4-0.2,0.8-0.4,1.2-0.6c5.3-2.8,10.6-5.5,15.9-8.3c0.7-0.4,1-0.7,0.6-1.5
	c-0.3-0.5-0.4-1.1-0.5-1.7c-0.1-0.8-0.5-1.1-1.3-1c-0.6,0-1.4,0.4-1.6-0.1c-0.2-0.5,0.6-1,1-1.3c1.2-0.9,1.4-2,1-3.4
	c-0.1-0.5-0.3-0.8-0.8-0.4c-2.4,2.1-5.2,3.9-7.1,6.6c-0.8,1.1-1.7,2.1-2.5,3.2c-0.3-0.6,0.1-1-0.2-1.7
	C436.7,282.1,430.2,287.5,423.7,292.8z M302.4,306.5h-11c-0.2,0-0.4,0.1-0.6,0.3c-3,5.1-6.4,11.1-8,14.4h-0.1
	c0.1-2.9-0.2-9.1-0.5-14.1c0-0.3-0.3-0.6-0.6-0.6h-11.1c-0.3,0-0.6,0.2-0.6,0.5l-5.5,21.9c-0.1,0.4,0.2,0.8,0.6,0.8h6.3
	c0.3,0,0.5-0.2,0.6-0.5l1.8-7.1c1-4,1.8-8.5,2.3-11.2h0.1c0.1,4.6,0.3,11,0.5,18.1c0,0.3,0.3,0.6,0.6,0.6h6c0.2,0,0.5-0.1,0.6-0.3
	c4.5-8.1,7.8-13.9,10.1-18.3h0.1c-0.9,2.7-2.2,7.2-3.1,10.9l-1.7,7c-0.1,0.4,0.2,0.8,0.6,0.8h7c0.3,0,0.6-0.2,0.6-0.5l5.5-21.9
	C303.1,306.9,302.8,306.5,302.4,306.5z M334.5,328.9L330,307c-0.1-0.3-0.3-0.5-0.6-0.5h-10.2c-0.2,0-0.4,0.1-0.5,0.3l-14.8,21.9
	c-0.3,0.4,0,1,0.5,1h7.3c0.2,0,0.4-0.1,0.5-0.3l2.6-3.9c0.1-0.2,0.3-0.3,0.5-0.3h9.5c0.3,0,0.6,0.2,0.6,0.5l0.6,3.4
	c0.1,0.3,0.3,0.5,0.6,0.5h7.2C334.3,329.7,334.6,329.3,334.5,328.9z M372.8,306.5h-8c-0.1,0-0.3,0-0.4,0.1c-4.3,3.2-7.7,5.8-11,8.3
	c-0.5,0.4-1.2-0.1-1-0.7l1.7-7c0.1-0.4-0.2-0.8-0.6-0.8h-7c-0.3,0-0.6,0.2-0.6,0.5l-5.5,21.9c-0.1,0.4,0.2,0.8,0.6,0.8h7.1
	c0.3,0,0.6-0.2,0.6-0.5l1.5-6.2c0-0.2,0.1-0.3,0.3-0.4l3.2-1.9c0.3-0.2,0.7-0.1,0.9,0.2l5.3,8.5c0.1,0.2,0.3,0.3,0.5,0.3h7.9
	c0.5,0,0.8-0.6,0.5-1l-7.8-11.7c-0.2-0.3-0.1-0.7,0.2-0.9l11.9-8.5C373.7,307.3,373.4,306.5,372.8,306.5z M387.6,306.5h-7.1
	c-0.3,0-0.6,0.2-0.6,0.5l-5.5,21.9c-0.1,0.4,0.2,0.8,0.6,0.8h7.1c0.3,0,0.6-0.2,0.6-0.5l5.5-21.9
	C388.4,306.9,388.1,306.5,387.6,306.5z M419.4,306.5h-21.6c-0.3,0-0.6,0.2-0.6,0.5l-5.5,21.9c-0.1,0.4,0.2,0.8,0.6,0.8h22
	c0.3,0,0.5-0.2,0.6-0.4l1.7-3.9c0.2-0.4-0.1-0.9-0.6-0.9h-14.2c-0.4,0-0.7-0.4-0.6-0.8l0.7-2.8c0.1-0.3,0.3-0.5,0.6-0.5h12.9
	c0.3,0,0.5-0.2,0.6-0.5l1-3.9c0.1-0.4-0.2-0.8-0.6-0.8h-12.3c-0.4,0-0.7-0.4-0.6-0.8l0.5-2.2c0.1-0.3,0.3-0.5,0.6-0.5h13.6
	c0.3,0,0.5-0.2,0.6-0.5l1-3.9C420.2,306.9,419.8,306.5,419.4,306.5z M421.2,289.9c0-0.2-0.1-0.3-0.3-0.4c-1.3-0.7-2.6-1.3-4.2-0.6
	c-1.1,0.5-2.4,0.7-3.5,1c0-0.1,0-0.2-0.1-0.3c1.5-0.7,3.1-1.4,4.6-2c0.7-0.3,1.1-0.7,1.2-1.5c0.1-0.8,0.4-1.5,0.5-2.3
	c0.1-0.3,0.3-0.8,0-1c-0.3-0.3-0.7,0.1-0.9,0.3c-7.3,4.2-14.6,8.5-21.9,12.7c-0.3,0.2-0.7,0.3-0.9,0.8c0.3,0,0.5,0,0.7,0
	c1.8-0.4,3.7-0.9,5.5-1.3c4.3-1.1,8.6-2.2,12.9-3.4c2-0.5,3.9-1.1,5.9-1.6C420.9,290.2,421.1,290.2,421.2,289.9z M445.4,324.5H433
	c-0.4,0-0.7-0.4-0.6-0.8l4.1-16.4c0.1-0.4-0.2-0.8-0.6-0.8h-7.1c-0.3,0-0.6,0.2-0.6,0.5l-5.5,21.9c-0.1,0.4,0.2,0.8,0.6,0.8h20.4
	c0.3,0,0.5-0.2,0.6-0.4l1.7-3.9C446.2,325,445.9,324.5,445.4,324.5z M492.5,307l-5.5,21.9c-0.1,0.4,0.2,0.8,0.6,0.8h7.1
	c0.3,0,0.6-0.2,0.6-0.5l1.5-6.2c0-0.2,0.1-0.3,0.3-0.4l3.2-1.9c0.3-0.2,0.7-0.1,0.9,0.2l5.3,8.5c0.1,0.2,0.3,0.3,0.5,0.3h7.9
	c0.5,0,0.8-0.6,0.5-1l-7.8-11.7c-0.2-0.3-0.1-0.7,0.2-0.9l11.9-8.5c0.5-0.4,0.3-1.2-0.4-1.2h-8c-0.1,0-0.3,0-0.4,0.1
	c-4.3,3.2-7.7,5.8-11,8.3c-0.5,0.4-1.2-0.1-1-0.7l1.7-7c0.1-0.4-0.2-0.8-0.6-0.8h-7C492.8,306.5,492.6,306.7,492.5,307z
	 M477.9,282.8c0.3,0,0.6,0.1,0.8,0.1c0.8-0.1,1.3,0.1,1.3,1.1c0,0.6,0.4,0.9,0.9,1.2c3.4,2.2,6.9,4.3,10.3,6.5
	c0.3,0.2,0.6,0.4,1.2,0.4c-1.1-1.3-2-2.5-3-3.6c-1.1-1.3-2-3-4.1-3.1c-0.6,0-0.6-0.4-0.1-0.8c0.2-0.2,0.7-0.3,0.4-0.7
	c-0.7-0.9-1.5-1.8-2.3-2.7c-0.1-0.1-0.4-0.1-0.6-0.1C481.1,281.6,479.4,282,477.9,282.8z M476,306.5h-10.2c-0.2,0-0.4,0.1-0.5,0.3
	l-14.8,21.9c-0.3,0.4,0,1,0.5,1h7.3c0.2,0,0.4-0.1,0.5-0.3l2.6-3.9c0.1-0.2,0.3-0.3,0.5-0.3h9.5c0.3,0,0.6,0.2,0.6,0.5l0.6,3.4
	c0.1,0.3,0.3,0.5,0.6,0.5h7.2c0.4,0,0.7-0.4,0.6-0.8l-4.5-21.9C476.6,306.7,476.3,306.5,476,306.5z M468.8,295.4c-1.2-0.8-2-2-3-3.1
	c-0.6-0.7-1.2-1.4-1.8-2c-0.3-0.3-0.6-0.6-0.9-0.3c-1.8,1.8-3.7,0.7-5.6,0.2c-0.7-0.2-1.1-0.1-1.6,0.4c-3,3.1-6,6.2-8.9,9.3l3,0
	c2.7-2.6,5.3-5.1,8-7.7c0.5-0.5,1-0.6,1.6-0.2c0.1,0,0.1,0.1,0.2,0.1c2.6,0.7,3.9,2.6,4.7,5.1c0.3,0.9,0.7,1.8,1.1,2.7l10.2,0
	C473.5,298.4,471.1,296.9,468.8,295.4z M461.8,256.9c-0.9,0-1.7,0-2.6,0c0,0,0,0,0,0c-1,0-2,0-2.9,0c-0.6,0-0.9,0.2-0.9,0.9
	c0,1.8,0,3.6,0,5.4c0,0.5,0.2,0.8,0.6,1.1c4.8,3.1,9.5,6.1,14.3,9.2c0.2,0.1,0.4,0.3,0.6,0.2c0.2-0.1,0.2-0.4,0.2-0.6
	c-0.3-3.6-0.7-7.1-1.8-10.5C468,258.8,465.7,257.1,461.8,256.9z M518.8,263.7c-4.9-1.7-9.9-3.6-14.9-5.2c-5.1-1.7-5.3-1.7-8-5.8
	c-1.1-1.7-2.5-2.6-4.2-3.4c-0.6-0.3-0.7-0.2-0.6,0.4c0.3,1.8,0.7,3.6,1.1,5.4c0.4,1.5,1.3,2.4,2.7,2.9c0.8,0.3,1.7,0.6,2.5,0.8
	c6.3,1.6,12.6,3.2,18.9,4.7C517.2,263.7,517.9,264.1,518.8,263.7z M537.7,194.2c0,1.4,1.2,2.6,2.7,2.6c1.5,0,2.7-1.2,2.7-2.7
	c0-1.4-1.2-2.6-2.6-2.6C539,191.4,537.7,192.7,537.7,194.2z M535.1,189.1c0.1-0.3,0.4-0.6,0.2-0.9c-0.3-0.3-0.6,0.1-0.9,0.2
	c-5.4,2.8-10.8,5.5-16.3,8.3c-0.7,0.4-1.4,0.6-1.5,1.6c-0.1,0.4-0.5,0.6-0.9,0.8c-5.6,2.8-11.3,5.5-16.9,8.3
	c-2.3,1.1-4.6,2.3-6.9,3.4c-0.4,0.2-0.7,0.5-0.4,0.9c0.3,0.5,0.1,1.3,0.9,1.5c0.2-0.1,0.5-0.2,0.7-0.3c12.6-6.5,25.3-13.1,37.9-19.6
	C532.8,192.4,534.5,191.3,535.1,189.1z M535.5,250.2c-0.5-0.8-1.1-1.6-1.6-2.3c-0.1-0.2-0.2-0.5-0.5-0.4c-0.2,0.1-0.3,0.3-0.4,0.5
	c-0.4,1.8-0.8,3.6-1.3,5.5c0,0-0.1,0.2,0.1,0.3c0.2,0.1,0.4-0.1,0.5-0.2c1-0.8,1.9-1.6,2.9-2.3C535.8,251,535.9,250.6,535.5,250.2z
	 M543,210.3c-0.2-0.2-0.5-0.1-0.7,0.1c-0.2,0.2-0.2,0.4-0.3,0.7c-0.4,1.8-0.9,3.6-1.3,5.3c-0.9,3.6-1.7,7.2-2.6,10.9
	c-1,4.2-2,8.3-3,12.5c-0.3,1.4-0.6,2.8-1,4.2c0,0.2,0,0.5,0.1,0.6c0.2,0.4,0.4,1,0.9,1c0.4,0,0.4-0.6,0.5-1
	c1.1-4.1,2.3-8.3,3.3-12.4c0.2-0.7,0.9-1.6-0.2-2.2c-0.1,0,0-0.3,0-0.5c0.9-3.9,1.9-7.8,2.8-11.7c0.5-2.3,1.1-4.5,1.6-6.8
	C543.2,210.7,543.2,210.4,543,210.3z M509,256.4c3.2,1.2,6.4,2.1,9.8,2.7c2,0.4,2,0.4,2.4-1.6c0-0.2,0.1-0.4,0.2-0.7
	c0.3-1.5,0.6-3.1,0.9-4.7c0-0.4-0.2-0.6-0.4-0.9c-1-1.4-1.9-2.9-2.9-4.3c-0.9-1.3-0.9-1.3-2.4-0.8c-0.5,0.2-1,0.4-1.6,0.5
	c-1.3,0.3-2.1,1.1-2.8,2.2c-1.2,2-2.4,3.9-3.7,5.9C507.7,256,507.8,256,509,256.4z M507,246.3c-0.3-0.1-0.6-0.3-0.9-0.5
	c-1.1-0.5-1.9-1.2-2-2.5c-0.1-0.5-0.4-1-0.6-1.5c-0.2-0.6-0.5-0.7-0.9-0.1c-1.1,1.7-2.2,3.4-3.2,5c-0.2,0.3-0.3,0.6,0,0.9
	c0.6,0.8,1.1,1.7,2,2.2c1.4,0.8,2.5,2,3.2,3.5c0.1,0.2,0.3,0.4,0.4,0.7c0.2,0.4,0.5,0.4,0.8,0.1c1.2-1.5,3.2-2.6,2.6-5
	C508.9,247.6,508.3,246.8,507,246.3z M482.8,269.8c0.7,1.7,1.4,3.1,3.4,3.7c1.5,0.5,1.4,0.6,2.4-0.6c0.5-0.6,1.3-1,1.1-2
	c-0.3-1.9-0.6-3.7-0.9-5.6c-0.1-0.4-0.3-0.5-0.7-0.6c-1.7-0.6-3.3-0.7-4.4,1.1c-0.1,0.1-0.2,0.2-0.3,0.4
	C481.8,268,481.9,267.4,482.8,269.8z M493.6,242.3c-0.4,0.2-0.5,0.4-0.4,0.9c0.4,1.8,1.7,2.8,3.1,3.7c0.1,0.1,0.3,0.1,0.4,0
	c0.4-0.1,1.8-2.2,1.8-2.8c-0.3-0.7,0.2-1.7-0.7-2.3c-1.4-1-1.3-1.1-2.8-0.2C494.5,241.8,494,242.1,493.6,242.3z M499.5,232.8
	c-1.3,1.3-2.8,2.6-3.4,4.5c-0.2,0.6-0.1,0.9,0.6,1c0.9,0.1,1.8,0.3,2.7,0.4c0.4,0.1,0.7,0,0.8-0.3c0.3-0.8,0.7-1.5,0.7-2.3
	c0-1.1-0.3-2.1-0.6-3.1C500.1,232.5,499.8,232.5,499.5,232.8z M493.2,279.8c-0.3,0.4-0.5,0.7-0.9,1c-0.6,0.4-0.5,0.7,0,1.1
	c0.4,0.3,0.8,0.6,1.3,0.5c0.6,0.1,0.9-0.2,1.2-0.7c0.2-0.5,0.5-1,1.2-1.2c0.3-0.1,0.5-0.3,0.3-0.6
	C495.7,278.8,493.9,278.7,493.2,279.8z M484.9,260.3c0.6,0.1,0.9-0.2,1.1-0.7c0.2-0.6,0.5-1,1.2-1.2c0.5-0.2,0.5-0.5,0.1-0.8
	c-0.3-0.2-0.6-0.3-0.9-0.5c-0.8-0.6-1.4-0.4-1.9,0.5c-0.2,0.4-0.5,0.7-0.8,1c-0.8,0.6-0.8,0.8,0.1,1.4
	C484.1,260.2,484.5,260.4,484.9,260.3z M489.9,279c0.4-0.2,0.5-0.7,0.5-1.2c0-0.5-0.1-1.1-0.4-1.2c-0.7-0.2-1,0.6-1.3,1
	c-0.2,0.3-0.8,0.8-0.3,1.2C488.8,279.1,489.4,279.2,489.9,279z M323.2,311.3c-0.9,1.8-2.5,4.6-4.5,7.8c-0.3,0.4,0,1,0.5,1h4.5
	c0.4,0,0.7-0.4,0.6-0.8c-0.6-3.3-1-6.3-1.1-8H323.2z M465.9,320.1h4.5c0.4,0,0.7-0.4,0.6-0.8c-0.6-3.3-1-6.3-1.1-8h-0.1
	c-0.9,1.8-2.5,4.6-4.5,7.8C465.1,319.5,465.4,320.1,465.9,320.1z"/>
</svg>
