<?xml version="1.0" encoding="UTF-8" standalone="no"?><!DOCTYPE svg PUBLIC "-//W3C//DTD SVG 1.1//EN" "http://www.w3.org/Graphics/SVG/1.1/DTD/svg11.dtd"><svg width="100%" height="100%" viewBox="0 0 2076 1180" version="1.1" xmlns="http://www.w3.org/2000/svg" xmlns:xlink="http://www.w3.org/1999/xlink" xml:space="preserve" xmlns:serif="http://www.serif.com/" style="fill-rule:evenodd;clip-rule:evenodd;stroke-linejoin:round;stroke-miterlimit:2;"><path d="M14.85,12.38c-8.19,0 -14.849,6.65 -14.849,14.84l-0,1137.56c-0,0.56 0.029,1.11 0.099,1.66c0.82,7.41 7.12,13.19 14.75,13.19l2045.4,-0c8.2,0 14.85,-6.66 14.85,-14.85l-0,-1137.56c-0,-6.92 -4.75,-12.75 -11.181,-14.38c-1.17,-0.299 -2.399,-0.46 -3.669,-0.46l-2045.4,-0Z" style="fill:url(#_Linear1);fill-rule:nonzero;"/><path d="M1361.17,12.38l-921.18,921.17l-439.89,232.89c-0.07,-0.55 -0.1,-1.1 -0.1,-1.66l-0,-1137.56c-0,-8.19 6.66,-14.84 14.85,-14.84l1346.32,0Z" style="fill:#fff;fill-rule:nonzero;"/><g opacity="0.5"><path d="M2075.1,116.96l0,121.29c-4.48,5.32 -7.92,11 -9.79,17.23c-10.58,35.33 -64.15,27.43 -67.34,71.31c-3.18,43.89 -51.6,20.32 -69.73,49.09c-18.13,28.76 -58.6,33.85 -90.95,37.51c-32.35,3.67 -38.51,33.31 -74.16,54.78c-35.65,21.48 -47.15,-13.44 -171.58,15.63c-124.43,29.07 -326.55,28.26 -326.55,28.26c454.43,-0.48 696.78,-233.71 810.1,-395.1" style="fill:#fff;fill-rule:nonzero;"/><path d="M2075.1,27.22l0,17.39c-89.94,164.17 -312.32,337.19 -507.85,407.9c315.25,-141.9 447.33,-339.67 496.67,-439.67c6.43,1.63 11.18,7.46 11.18,14.38" style="fill:#fff;fill-rule:nonzero;"/><path d="M2060.24,12.38c-87.39,126.3 -215.33,247.33 -339.2,318.57c156.49,-106.58 255.97,-220.09 319.06,-318.57l20.14,0Z" style="fill:#fff;fill-rule:nonzero;"/><path d="M919.56,0c0,0 220,392 660,390c-154,-8 -168,-14 -230,-14c-62,0 -56,22 -84,2c-28,-20 -10,-34 -36,-36c-26,-2 -42,10 -60,-12c-18,-22 -12,-34 -22,-42c-10,-8 -38,-2 -60,-10c-22,-8 -74,-76 -74,-76l-94,-202Z" style="fill:#fff;fill-rule:nonzero;"/><path d="M1591.56,356c-234,-28 -478,-228 -536,-278l-13.73,-65.62l-0.89,-4.23c1.53,1.39 3.08,2.8 4.67,4.23l8.1,0c6.76,8.14 15.61,18.43 26.5,30.37c76.01,83.21 251.63,246.13 511.35,313.25" style="fill:#fff;fill-rule:nonzero;"/><path d="M1512.35,280.67c-166.52,-31.7 -332.07,-152.53 -432.14,-237.92c-12.62,-10.78 -24.2,-20.98 -34.6,-30.37l48.18,-0c87.59,90.35 227.59,204.6 418.56,268.29" style="fill:#fff;fill-rule:nonzero;"/><path d="M1201.56,60c0,0 326,172 618,80c-180,62 -472,56 -804,-78l186,-2Z" style="fill:#fff;fill-rule:nonzero;"/></g><defs><linearGradient id="_Linear1" x1="0" y1="0" x2="1" y2="0" gradientUnits="userSpaceOnUse" gradientTransform="matrix(375.038,1224.12,-1224.12,375.038,925.768,231.133)"><stop offset="0" style="stop-color:#fd6e6a;stop-opacity:1"/><stop offset="1" style="stop-color:#ffc600;stop-opacity:1"/></linearGradient></defs></svg>