<?xml version="1.0" encoding="UTF-8" standalone="no"?><!DOCTYPE svg PUBLIC "-//W3C//DTD SVG 1.1//EN" "http://www.w3.org/Graphics/SVG/1.1/DTD/svg11.dtd"><svg width="100%" height="100%" viewBox="0 0 2076 326" version="1.1" xmlns="http://www.w3.org/2000/svg" xmlns:xlink="http://www.w3.org/1999/xlink" xml:space="preserve" xmlns:serif="http://www.serif.com/" style="fill-rule:evenodd;clip-rule:evenodd;stroke-linejoin:round;stroke-miterlimit:2;"><path d="M2075.1,51.649l0,258.76c0,8.19 -6.65,14.85 -14.85,14.85l-2045.4,-0c-7.63,-0 -13.93,-5.78 -14.75,-13.19c-0.07,-0.55 -0.1,-1.1 -0.1,-1.66l0,-185.67l128.1,-65.31c44.76,-22.82 95.37,-31.57 145.18,-25.11l342.95,44.45c43.64,5.66 87.99,-0.34 128.56,-17.39l57.53,-24.18c56.39,-23.7 119.53,-25.83 177.39,-5.97l120.68,41.41c61.26,21.02 128.29,17.36 186.9,-10.21l82.35,-38.74c26.57,-12.5 54.87,-20.08 83.57,-22.67c35.81,-3.25 72.26,1.27 106.75,13.67l44.38,15.96l72.5,26.06c42.61,15.31 88.58,18.73 132.99,9.88l39.31,-7.84c24.42,-4.87 49.43,-6.05 74.2,-3.5l69.56,7.16c23.43,2.41 51.89,-2.65 82.2,-10.76" style="fill:#1b0221;fill-rule:nonzero;"/></svg>