<?xml version="1.0" encoding="UTF-8" standalone="no"?><!DOCTYPE svg PUBLIC "-//W3C//DTD SVG 1.1//EN" "http://www.w3.org/Graphics/SVG/1.1/DTD/svg11.dtd"><svg width="100%" height="100%" viewBox="0 0 2076 500" version="1.1" xmlns="http://www.w3.org/2000/svg" xmlns:xlink="http://www.w3.org/1999/xlink" xml:space="preserve" xmlns:serif="http://www.serif.com/" style="fill-rule:evenodd;clip-rule:evenodd;stroke-linejoin:round;stroke-miterlimit:2;"><path d="M2075.1,115.16l0,369.93c0,8.19 -6.65,14.85 -14.85,14.85l-2045.4,0c-7.63,0 -13.93,-5.78 -14.75,-13.19c-0.07,-0.55 -0.1,-1.1 -0.1,-1.66l0,-485.09l23.41,13.75c31.03,18.22 66.35,27.82 102.33,27.82l251.76,-0c27.27,-0 54.26,5.52 79.34,16.23l175.43,74.91c35.01,14.94 73.53,19.7 111.13,13.71l221.67,-35.31c39.02,-6.22 79.01,-0.85 115.02,15.42l104.96,47.45c38.29,17.31 81.01,22.25 122.24,14.14l65.56,-12.9c26.64,-5.24 53.96,-5.04 80.36,0.48c8.69,1.82 17.28,4.21 25.71,7.18l35.07,12.34c29.2,10.28 60.11,13.62 90.35,10.11c19.64,-2.29 39.01,-7.45 57.45,-15.49c25.5,-11.12 52.98,-16.83 80.72,-16.83c3.85,0 7.7,0.11 11.55,0.33l114.91,6.56c28.72,1.64 57.43,-2.87 84.22,-13.2c2.06,-0.79 4.11,-1.62 6.14,-2.48l115.77,-49.06Z" style="fill:#2c0535;fill-rule:nonzero;"/></svg>